<svg height="512" viewBox="0 0 256 256" width="512" xmlns="http://www.w3.org/2000/svg"><path d="m51.024 4h162.621a25.347 25.347 0 0 1 25.347 25.347v197.307a25.346 25.346 0 0 1 -25.346 25.346h-162.622a0 0 0 0 1 0 0v-248a0 0 0 0 1 0 0z" fill="#576fa5"/><path d="m213.646 4h-9a25.346 25.346 0 0 1 25.346 25.346v197.308a25.346 25.346 0 0 1 -25.346 25.346h9a25.346 25.346 0 0 0 25.346-25.346v-197.308a25.346 25.346 0 0 0 -25.346-25.346z" fill="#395288"/><path d="m51.024 4h24.178v248h-24.178z" fill="#fcc24c"/><path d="m17.008 59.28h22.485v181.477a11.242 11.242 0 0 1 -11.242 11.243 11.242 11.242 0 0 1 -11.243-11.243z" fill="#fcc24c"/><path d="m23.008 240.757v-181.477h-6v181.477a11.242 11.242 0 0 0 11.243 11.243 11.255 11.255 0 0 0 3-.417 11.238 11.238 0 0 1 -8.243-10.826z" fill="#fce06a"/><path d="m17.008 229.927v10.83a11.242 11.242 0 0 0 11.243 11.243 11.242 11.242 0 0 0 11.242-11.243v-10.83z" fill="#576fa5"/><path d="m17.008 59.28 11.243-22.08 11.242 22.08z" fill="#f4efed"/><path d="m23.008 240.757v-10.83h-6v10.83a11.242 11.242 0 0 0 11.243 11.243 11.255 11.255 0 0 0 3-.417 11.238 11.238 0 0 1 -8.243-10.826z" fill="#708dc8"/><path d="m112.82 45h88.553v45.975h-88.553z" fill="#f4efed"/><path d="m51.024 4h9v248h-9z" fill="#fce06a"/><g fill="#690589"><path d="m39.493 61.28h-22.485a2 2 0 0 1 -1.782-2.908l11.242-22.08a2 2 0 0 1 3.565 0l11.242 22.08a2 2 0 0 1 -1.782 2.908zm-19.222-4h15.959l-7.98-15.673z"/><path d="m28.25 254a13.257 13.257 0 0 1 -13.242-13.243v-10.83a2 2 0 0 1 2-2h22.485a2 2 0 0 1 2 2v10.83a13.257 13.257 0 0 1 -13.243 13.243zm-9.242-22.073v8.83a9.243 9.243 0 1 0 18.485 0v-8.83z"/><path d="m28.25 254a13.257 13.257 0 0 1 -13.242-13.243v-181.477a2 2 0 0 1 2-2h22.485a2 2 0 0 1 2 2v181.477a13.257 13.257 0 0 1 -13.243 13.243zm-9.242-192.72v179.477a9.243 9.243 0 1 0 18.485 0v-179.477z"/><path d="m28.25 231.927a2 2 0 0 1 -2-2v-170.647a2 2 0 0 1 4 0v170.647a2 2 0 0 1 -2 2z"/><path d="m201.373 92.975h-88.553a2 2 0 0 1 -2-2v-45.975a2 2 0 0 1 2-2h88.553a2 2 0 0 1 2 2v45.975a2 2 0 0 1 -2 2zm-86.553-4h84.553v-41.975h-84.553z"/><path d="m75.2 254h-24.176a2 2 0 0 1 -2-2v-248a2 2 0 0 1 2-2h24.176a2 2 0 0 1 2 2v248a2 2 0 0 1 -2 2zm-22.178-4h20.178v-244h-20.176z"/><path d="m213.646 254h-162.622a2 2 0 0 1 -2-2v-248a2 2 0 0 1 2-2h162.622a27.377 27.377 0 0 1 27.346 27.347v197.306a27.377 27.377 0 0 1 -27.346 27.347zm-160.622-4h160.622a23.373 23.373 0 0 0 23.346-23.347v-197.306a23.373 23.373 0 0 0 -23.346-23.347h-160.622z"/><path d="m186.333 60.99h-58.472a2 2 0 0 1 0-4h58.472a2 2 0 0 1 0 4z"/><path d="m186.333 78.532h-58.472a2 2 0 0 1 0-4h58.472a2 2 0 0 1 0 4z"/><path d="m60.024 61.783a2 2 0 0 1 -2-2v-12a2 2 0 0 1 4 0v12a2 2 0 0 1 -2 2z"/></g></svg>