<svg width="487" height="611" viewBox="0 0 487 611" fill="none" xmlns="http://www.w3.org/2000/svg">
<path d="M140.232 433.154V438.043C140.232 442.174 143.58 445.521 147.71 445.521H341.286C345.416 445.521 348.764 442.174 348.764 438.043V433.154C348.764 407.042 335.374 381.641 311.06 361.631C292.545 346.394 268.905 338.001 244.496 338.001C220.088 338.001 196.449 346.393 177.935 361.63C153.622 381.639 140.232 407.04 140.232 433.154V433.154ZM187.44 373.179C203.283 360.139 223.547 352.957 244.496 352.957C265.446 352.957 285.71 360.14 301.555 373.18C321.82 389.858 332.91 409.648 333.756 430.566H155.24C156.087 409.646 167.175 389.855 187.44 373.179V373.179Z" fill="#313131"/>
<path d="M111.198 50.3893V79.684C111.198 113.252 120.248 146.41 137.37 175.572C139.461 179.133 144.044 180.325 147.606 178.234C151.167 176.142 152.36 171.561 150.268 167.998C134.493 141.131 126.154 110.592 126.154 79.684V50.4073L362.846 50.4083V79.686C362.846 125.965 344.649 169.845 311.609 203.237C311.609 203.238 311.608 203.238 311.608 203.239C304.905 210.016 297.583 216.33 289.844 222.01C279.244 229.791 272.916 242.222 272.916 255.265C272.916 268.31 279.223 280.725 289.788 288.476C319.597 310.346 341.59 340.052 353.388 374.385C354.454 377.486 357.355 379.434 360.46 379.434C361.266 379.434 362.086 379.303 362.891 379.027C366.796 377.684 368.874 373.43 367.532 369.524C354.739 332.294 330.913 300.097 298.634 276.417C291.895 271.473 287.871 263.565 287.871 255.264C287.871 246.965 291.917 239.041 298.693 234.067C307.062 227.924 314.984 221.09 322.239 213.758C322.239 213.758 322.24 213.757 322.239 213.759C358.069 177.545 377.801 129.931 377.801 79.686V50.3893C391.206 50.0104 401.999 38.8619 401.999 25.2036C401.999 11.3061 390.829 0 377.099 0H111.9C98.1156 0 86.998 11.2941 87 25.2056C87.001 38.8639 97.7936 50.0104 111.198 50.3893V50.3893ZM111.9 14.9565H377.099C382.583 14.9565 387.044 19.5531 387.044 25.2026C387.044 30.8532 382.583 35.4498 377.099 35.4498H111.9C106.416 35.4498 101.956 30.8532 101.955 25.2046C101.956 19.4514 106.496 14.9565 111.9 14.9565V14.9565Z" fill="#313131"/>
<path d="M377.799 460.125C377.799 429.307 378.228 420.826 375.985 404.799C375.412 400.708 371.64 397.863 367.542 398.429C363.452 399.001 360.601 402.781 361.173 406.873C363.224 421.523 362.843 428.77 362.843 460.107H244.498L126.152 460.106C126.152 427.697 124.116 401.102 139.533 364.034C139.535 364.028 139.538 364.022 139.54 364.016C151.986 334.1 172.618 307.979 199.205 288.475C209.773 280.723 216.082 268.306 216.082 255.261C216.082 242.218 209.756 229.787 199.158 222.01C188.404 214.116 178.538 205.067 169.832 195.113C167.112 192.005 162.389 191.688 159.28 194.407C156.171 197.126 155.855 201.85 158.574 204.959C167.997 215.735 178.675 225.527 190.309 234.066C197.083 239.037 201.126 246.96 201.126 255.26C201.126 263.56 197.1 271.469 190.359 276.414C161.573 297.532 139.225 325.835 125.731 358.27C125.729 358.277 125.726 358.283 125.723 358.29C109.18 398.065 111.196 426.414 111.196 460.123C104.784 460.302 98.7887 462.912 94.2469 467.534C89.5735 472.29 86.999 478.603 87 485.311C87.001 499.209 98.1715 510.514 111.9 510.514H377.099C390.829 510.514 402 499.208 402 485.311C401.999 471.652 391.206 460.502 377.799 460.125ZM377.099 495.557H111.9C106.416 495.557 101.956 490.962 101.955 485.312C101.955 479.571 106.482 475.064 111.9 475.064H244.498H377.099C382.583 475.064 387.044 479.661 387.044 485.311C387.043 490.961 382.583 495.557 377.099 495.557Z" fill="#313131"/>
<path d="M251.976 231.825C251.976 227.694 248.627 224.347 244.498 224.347C240.368 224.347 237.019 227.694 237.019 231.825V241.796C237.019 245.927 240.368 249.274 244.498 249.274C248.627 249.274 251.976 245.927 251.976 241.796V231.825Z" fill="#313131"/>
<path d="M244.498 327.048C248.627 327.048 251.976 323.701 251.976 319.57V309.599C251.976 305.468 248.627 302.12 244.498 302.12C240.368 302.12 237.019 305.468 237.019 309.599V319.57C237.019 323.701 240.368 327.048 244.498 327.048Z" fill="#313131"/>
<path d="M244.498 263.234C240.368 263.234 237.019 266.581 237.019 270.712V280.683C237.019 284.814 240.368 288.161 244.498 288.161C248.627 288.161 251.976 284.814 251.976 280.683V270.712C251.976 266.581 248.627 263.234 244.498 263.234Z" fill="#313131"/>
<path d="M346.998 103.399C347.676 98.8831 344.175 94.811 339.603 94.811H149.397C144.831 94.811 141.323 98.8771 142.002 103.399C147.038 136.938 162.47 167.663 186.63 192.253C201.796 207.687 222.889 216.541 244.501 216.541C266.112 216.541 287.205 207.688 302.371 192.254C326.531 167.665 341.963 136.94 346.998 103.399V103.399ZM244.5 201.585C226.875 201.585 209.67 194.363 197.298 181.772C177.447 161.567 164.089 136.82 158.346 109.767H330.653C324.911 136.822 311.553 161.569 291.702 181.772C279.33 194.364 262.125 201.585 244.5 201.585V201.585Z" fill="#313131"/>
<path d="M57.0458 587.77C57.4858 587.77 57.8758 587.94 58.2158 588.28L61.3958 591.73C59.6358 593.91 57.4658 595.58 54.8858 596.74C52.3258 597.9 49.2458 598.48 45.6458 598.48C42.4258 598.48 39.5258 597.93 36.9458 596.83C34.3858 595.73 32.1958 594.2 30.3758 592.24C28.5558 590.28 27.1558 587.94 26.1758 585.22C25.2158 582.5 24.7358 579.53 24.7358 576.31C24.7358 573.05 25.2558 570.07 26.2958 567.37C27.3358 564.65 28.7958 562.31 30.6758 560.35C32.5758 558.39 34.8358 556.87 37.4558 555.79C40.0758 554.69 42.9758 554.14 46.1558 554.14C49.3158 554.14 52.1158 554.66 54.5558 555.7C57.0158 556.74 59.1058 558.1 60.8258 559.78L58.1258 563.53C57.9658 563.77 57.7558 563.98 57.4958 564.16C57.2558 564.34 56.9158 564.43 56.4758 564.43C56.1758 564.43 55.8658 564.35 55.5458 564.19C55.2258 564.01 54.8758 563.8 54.4958 563.56C54.1158 563.3 53.6758 563.02 53.1758 562.72C52.6758 562.42 52.0958 562.15 51.4358 561.91C50.7758 561.65 50.0058 561.44 49.1258 561.28C48.2658 561.1 47.2658 561.01 46.1258 561.01C44.1858 561.01 42.4058 561.36 40.7858 562.06C39.1858 562.74 37.8058 563.74 36.6458 565.06C35.4858 566.36 34.5858 567.96 33.9458 569.86C33.3058 571.74 32.9858 573.89 32.9858 576.31C32.9858 578.75 33.3258 580.92 34.0058 582.82C34.7058 584.72 35.6458 586.32 36.8258 587.62C38.0058 588.92 39.3958 589.92 40.9958 590.62C42.5958 591.3 44.3158 591.64 46.1558 591.64C47.2558 591.64 48.2458 591.58 49.1258 591.46C50.0258 591.34 50.8458 591.15 51.5858 590.89C52.3458 590.63 53.0558 590.3 53.7158 589.9C54.3958 589.48 55.0658 588.97 55.7258 588.37C55.9258 588.19 56.1358 588.05 56.3558 587.95C56.5758 587.83 56.8058 587.77 57.0458 587.77ZM107.356 576.31C107.356 579.49 106.826 582.44 105.766 585.16C104.726 587.86 103.246 590.2 101.326 592.18C99.4063 594.16 97.0963 595.71 94.3963 596.83C91.6963 597.93 88.6963 598.48 85.3963 598.48C82.1163 598.48 79.1263 597.93 76.4263 596.83C73.7263 595.71 71.4063 594.16 69.4663 592.18C67.5463 590.2 66.0563 587.86 64.9963 585.16C63.9363 582.44 63.4063 579.49 63.4063 576.31C63.4063 573.13 63.9363 570.19 64.9963 567.49C66.0563 564.77 67.5463 562.42 69.4663 560.44C71.4063 558.46 73.7263 556.92 76.4263 555.82C79.1263 554.7 82.1163 554.14 85.3963 554.14C87.5963 554.14 89.6663 554.4 91.6063 554.92C93.5463 555.42 95.3263 556.14 96.9463 557.08C98.5663 558 100.016 559.13 101.296 560.47C102.596 561.79 103.696 563.27 104.596 564.91C105.496 566.55 106.176 568.33 106.636 570.25C107.116 572.17 107.356 574.19 107.356 576.31ZM99.1063 576.31C99.1063 573.93 98.7863 571.8 98.1463 569.92C97.5063 568.02 96.5963 566.41 95.4163 565.09C94.2363 563.77 92.7963 562.76 91.0963 562.06C89.4163 561.36 87.5163 561.01 85.3963 561.01C83.2763 561.01 81.3663 561.36 79.6663 562.06C77.9863 562.76 76.5463 563.77 75.3463 565.09C74.1663 566.41 73.2563 568.02 72.6163 569.92C71.9763 571.8 71.6563 573.93 71.6563 576.31C71.6563 578.69 71.9763 580.83 72.6163 582.73C73.2563 584.61 74.1663 586.21 75.3463 587.53C76.5463 588.83 77.9863 589.83 79.6663 590.53C81.3663 591.23 83.2763 591.58 85.3963 591.58C87.5163 591.58 89.4163 591.23 91.0963 590.53C92.7963 589.83 94.2363 588.83 95.4163 587.53C96.5963 586.21 97.5063 584.61 98.1463 582.73C98.7863 580.83 99.1063 578.69 99.1063 576.31ZM161.483 554.62V598H154.373V569.98C154.373 568.86 154.433 567.65 154.553 566.35L141.443 590.98C140.823 592.16 139.873 592.75 138.593 592.75H137.453C136.173 592.75 135.223 592.16 134.603 590.98L121.343 566.26C121.403 566.92 121.453 567.57 121.493 568.21C121.533 568.85 121.553 569.44 121.553 569.98V598H114.443V554.62H120.533C120.893 554.62 121.203 554.63 121.463 554.65C121.723 554.67 121.953 554.72 122.153 554.8C122.373 554.88 122.563 555.01 122.723 555.19C122.903 555.37 123.073 555.61 123.233 555.91L136.223 580C136.563 580.64 136.873 581.3 137.153 581.98C137.453 582.66 137.743 583.36 138.023 584.08C138.303 583.34 138.593 582.63 138.893 581.95C139.193 581.25 139.513 580.58 139.853 579.94L152.663 555.91C152.823 555.61 152.993 555.37 153.173 555.19C153.353 555.01 153.543 554.88 153.743 554.8C153.963 554.72 154.203 554.67 154.463 554.65C154.723 554.63 155.033 554.62 155.393 554.62H161.483ZM179.262 598H171.162V554.62H179.262V598ZM225.545 554.62V598H221.405C220.765 598 220.225 597.9 219.785 597.7C219.365 597.48 218.955 597.12 218.555 596.62L195.905 567.7C196.025 569.02 196.085 570.24 196.085 571.36V598H188.975V554.62H193.205C193.545 554.62 193.835 554.64 194.075 554.68C194.335 554.7 194.555 554.76 194.735 554.86C194.935 554.94 195.125 555.07 195.305 555.25C195.485 555.41 195.685 555.63 195.905 555.91L218.645 584.95C218.585 584.25 218.535 583.56 218.495 582.88C218.455 582.2 218.435 581.57 218.435 580.99V554.62H225.545ZM270.965 576.25V593.8C268.765 595.42 266.415 596.61 263.915 597.37C261.435 598.11 258.775 598.48 255.935 598.48C252.395 598.48 249.185 597.93 246.305 596.83C243.445 595.73 240.995 594.2 238.955 592.24C236.935 590.28 235.375 587.94 234.275 585.22C233.175 582.5 232.625 579.53 232.625 576.31C232.625 573.05 233.155 570.06 234.215 567.34C235.275 564.62 236.775 562.28 238.715 560.32C240.675 558.36 243.045 556.84 245.825 555.76C248.605 554.68 251.725 554.14 255.185 554.14C256.945 554.14 258.585 554.28 260.105 554.56C261.645 554.84 263.065 555.23 264.365 555.73C265.685 556.21 266.885 556.8 267.965 557.5C269.045 558.2 270.035 558.97 270.935 559.81L268.625 563.47C268.265 564.05 267.795 564.41 267.215 564.55C266.635 564.67 266.005 564.52 265.325 564.1C264.665 563.72 264.005 563.34 263.345 562.96C262.685 562.58 261.945 562.25 261.125 561.97C260.325 561.69 259.415 561.46 258.395 561.28C257.395 561.1 256.235 561.01 254.915 561.01C252.775 561.01 250.835 561.37 249.095 562.09C247.375 562.81 245.905 563.84 244.685 565.18C243.465 566.52 242.525 568.13 241.865 570.01C241.205 571.89 240.875 573.99 240.875 576.31C240.875 578.79 241.225 581.01 241.925 582.97C242.645 584.91 243.645 586.56 244.925 587.92C246.225 589.26 247.785 590.29 249.605 591.01C251.425 591.71 253.455 592.06 255.695 592.06C257.295 592.06 258.725 591.89 259.985 591.55C261.245 591.21 262.475 590.75 263.675 590.17V582.31H258.215C257.695 582.31 257.285 582.17 256.985 581.89C256.705 581.59 256.565 581.23 256.565 580.81V576.25H270.965ZM316.43 562.51C316.19 562.93 315.93 563.24 315.65 563.44C315.39 563.62 315.06 563.71 314.66 563.71C314.24 563.71 313.78 563.56 313.28 563.26C312.8 562.94 312.22 562.59 311.54 562.21C310.86 561.83 310.06 561.49 309.14 561.19C308.24 560.87 307.17 560.71 305.93 560.71C304.81 560.71 303.83 560.85 302.99 561.13C302.15 561.39 301.44 561.76 300.86 562.24C300.3 562.72 299.88 563.3 299.6 563.98C299.32 564.64 299.18 565.37 299.18 566.17C299.18 567.19 299.46 568.04 300.02 568.72C300.6 569.4 301.36 569.98 302.3 570.46C303.24 570.94 304.31 571.37 305.51 571.75C306.71 572.13 307.94 572.54 309.2 572.98C310.46 573.4 311.69 573.9 312.89 574.48C314.09 575.04 315.16 575.76 316.1 576.64C317.04 577.5 317.79 578.56 318.35 579.82C318.93 581.08 319.22 582.61 319.22 584.41C319.22 586.37 318.88 588.21 318.2 589.93C317.54 591.63 316.56 593.12 315.26 594.4C313.98 595.66 312.41 596.66 310.55 597.4C308.69 598.12 306.56 598.48 304.16 598.48C302.78 598.48 301.42 598.34 300.08 598.06C298.74 597.8 297.45 597.42 296.21 596.92C294.99 596.42 293.84 595.82 292.76 595.12C291.68 594.42 290.72 593.64 289.88 592.78L292.25 588.91C292.45 588.63 292.71 588.4 293.03 588.22C293.35 588.02 293.69 587.92 294.05 587.92C294.55 587.92 295.09 588.13 295.67 588.55C296.25 588.95 296.94 589.4 297.74 589.9C298.54 590.4 299.47 590.86 300.53 591.28C301.61 591.68 302.9 591.88 304.4 591.88C306.7 591.88 308.48 591.34 309.74 590.26C311 589.16 311.63 587.59 311.63 585.55C311.63 584.41 311.34 583.48 310.76 582.76C310.2 582.04 309.45 581.44 308.51 580.96C307.57 580.46 306.5 580.04 305.3 579.7C304.1 579.36 302.88 578.99 301.64 578.59C300.4 578.19 299.18 577.71 297.98 577.15C296.78 576.59 295.71 575.86 294.77 574.96C293.83 574.06 293.07 572.94 292.49 571.6C291.93 570.24 291.65 568.57 291.65 566.59C291.65 565.01 291.96 563.47 292.58 561.97C293.22 560.47 294.14 559.14 295.34 557.98C296.54 556.82 298.02 555.89 299.78 555.19C301.54 554.49 303.56 554.14 305.84 554.14C308.4 554.14 310.76 554.54 312.92 555.34C315.08 556.14 316.92 557.26 318.44 558.7L316.43 562.51ZM367.63 576.31C367.63 579.49 367.1 582.44 366.04 585.16C365 587.86 363.52 590.2 361.6 592.18C359.68 594.16 357.37 595.71 354.67 596.83C351.97 597.93 348.97 598.48 345.67 598.48C342.39 598.48 339.4 597.93 336.7 596.83C334 595.71 331.68 594.16 329.74 592.18C327.82 590.2 326.33 587.86 325.27 585.16C324.21 582.44 323.68 579.49 323.68 576.31C323.68 573.13 324.21 570.19 325.27 567.49C326.33 564.77 327.82 562.42 329.74 560.44C331.68 558.46 334 556.92 336.7 555.82C339.4 554.7 342.39 554.14 345.67 554.14C347.87 554.14 349.94 554.4 351.88 554.92C353.82 555.42 355.6 556.14 357.22 557.08C358.84 558 360.29 559.13 361.57 560.47C362.87 561.79 363.97 563.27 364.87 564.91C365.77 566.55 366.45 568.33 366.91 570.25C367.39 572.17 367.63 574.19 367.63 576.31ZM359.38 576.31C359.38 573.93 359.06 571.8 358.42 569.92C357.78 568.02 356.87 566.41 355.69 565.09C354.51 563.77 353.07 562.76 351.37 562.06C349.69 561.36 347.79 561.01 345.67 561.01C343.55 561.01 341.64 561.36 339.94 562.06C338.26 562.76 336.82 563.77 335.62 565.09C334.44 566.41 333.53 568.02 332.89 569.92C332.25 571.8 331.93 573.93 331.93 576.31C331.93 578.69 332.25 580.83 332.89 582.73C333.53 584.61 334.44 586.21 335.62 587.53C336.82 588.83 338.26 589.83 339.94 590.53C341.64 591.23 343.55 591.58 345.67 591.58C347.79 591.58 349.69 591.23 351.37 590.53C353.07 589.83 354.51 588.83 355.69 587.53C356.87 586.21 357.78 584.61 358.42 582.73C359.06 580.83 359.38 578.69 359.38 576.31ZM416.087 576.31C416.087 579.49 415.557 582.44 414.497 585.16C413.457 587.86 411.977 590.2 410.057 592.18C408.137 594.16 405.827 595.71 403.127 596.83C400.427 597.93 397.427 598.48 394.127 598.48C390.847 598.48 387.857 597.93 385.157 596.83C382.457 595.71 380.137 594.16 378.197 592.18C376.277 590.2 374.787 587.86 373.727 585.16C372.667 582.44 372.137 579.49 372.137 576.31C372.137 573.13 372.667 570.19 373.727 567.49C374.787 564.77 376.277 562.42 378.197 560.44C380.137 558.46 382.457 556.92 385.157 555.82C387.857 554.7 390.847 554.14 394.127 554.14C396.327 554.14 398.397 554.4 400.337 554.92C402.277 555.42 404.057 556.14 405.677 557.08C407.297 558 408.747 559.13 410.027 560.47C411.327 561.79 412.427 563.27 413.327 564.91C414.227 566.55 414.907 568.33 415.367 570.25C415.847 572.17 416.087 574.19 416.087 576.31ZM407.837 576.31C407.837 573.93 407.517 571.8 406.877 569.92C406.237 568.02 405.327 566.41 404.147 565.09C402.967 563.77 401.527 562.76 399.827 562.06C398.147 561.36 396.247 561.01 394.127 561.01C392.007 561.01 390.097 561.36 388.397 562.06C386.717 562.76 385.277 563.77 384.077 565.09C382.897 566.41 381.987 568.02 381.347 569.92C380.707 571.8 380.387 573.93 380.387 576.31C380.387 578.69 380.707 580.83 381.347 582.73C381.987 584.61 382.897 586.21 384.077 587.53C385.277 588.83 386.717 589.83 388.397 590.53C390.097 591.23 392.007 591.58 394.127 591.58C396.247 591.58 398.147 591.23 399.827 590.53C401.527 589.83 402.967 588.83 404.147 587.53C405.327 586.21 406.237 584.61 406.877 582.73C407.517 580.83 407.837 578.69 407.837 576.31ZM459.744 554.62V598H455.604C454.964 598 454.424 597.9 453.984 597.7C453.564 597.48 453.154 597.12 452.754 596.62L430.104 567.7C430.224 569.02 430.284 570.24 430.284 571.36V598H423.174V554.62H427.404C427.744 554.62 428.034 554.64 428.274 554.68C428.534 554.7 428.754 554.76 428.934 554.86C429.134 554.94 429.324 555.07 429.504 555.25C429.684 555.41 429.884 555.63 430.104 555.91L452.844 584.95C452.784 584.25 452.734 583.56 452.694 582.88C452.654 582.2 452.634 581.57 452.634 580.99V554.62H459.744Z" fill="#313131"/>
</svg>
