<?xml version="1.0" encoding="iso-8859-1"?>
<!-- Generator: Adobe Illustrator 19.0.0, SVG Export Plug-In . SVG Version: 6.00 Build 0)  -->
<svg version="1.1" id="Layer_1" xmlns="http://www.w3.org/2000/svg" xmlns:xlink="http://www.w3.org/1999/xlink" x="0px" y="0px"
	 viewBox="0 0 511.999 511.999" style="enable-background:new 0 0 511.999 511.999;" xml:space="preserve">
<path style="fill:#F4C063;" d="M399.538,341.687c-0.134,1.259-8.302,77.356-83.061,124.758
	c-41.698,26.443-104.11,43.971-197.401,34.599v-0.011l2.295-38.02c0,0,12.202-1.248,30.465-4.714h0.011
	c17.016-3.232,39.302-8.391,61.878-16.28c4.691-1.627,9.394-3.376,14.063-5.26v-0.178c0-7.633-1.125-14.999-3.22-21.952
	c40.316-40.316,24.247-80.442,67.583-123.622c4.112-4.101,8.77-8.235,14.051-12.391h0.189v17.695c0,0,56.418,11.076,74.67-7.165
	c-3.098,23.501-12.959,45.776-28.582,63.995c0,0,1.515,0.167,4.179,0.167C364.382,353.308,381.665,351.984,399.538,341.687z"/>
<circle style="fill:#F9DCA4;" cx="151.815" cy="268.673" r="91.931"/>
<path style="fill:#E7C080;" d="M108.095,268.678c0-42.431,28.753-78.128,67.83-88.722c-7.685-2.084-15.762-3.215-24.106-3.215
	c-50.775,0-91.936,41.162-91.936,91.936c0,50.775,41.162,91.936,91.936,91.936c8.345,0,16.422-1.132,24.106-3.215
	C136.848,346.805,108.095,311.108,108.095,268.678z"/>
<g>
	<path style="fill:#F4C063;" d="M151.82,176.732c0,72.244-89.268,69.89-89.268,69.89C72.417,206.494,108.65,176.732,151.82,176.732z
		"/>
	<path style="fill:#F4C063;" d="M241.087,246.622c0,0-89.268,2.355-89.268-69.89C194.988,176.732,231.222,206.494,241.087,246.622z"
		/>
</g>
<path style="fill:#EC589B;" d="M75.844,481.08v-44.499c0-20.978,8.5-39.973,22.253-53.713
	c13.741-13.754,32.735-22.253,53.725-22.253c41.955,0,75.966,34.011,75.966,75.966v0.164"/>
<g>
	<path style="fill:#F9DCA4;" d="M121.375,463.014l-2.295,38.02v0.011c-14.007-1.404-28.705-3.41-44.138-6.095
		c-0.145-0.022-0.301-0.056-0.446-0.078c-16.436-2.864-21.707-23.869-8.625-34.221l9.973-7.9h0.011
		C105.206,464.228,121.375,463.014,121.375,463.014z"/>
</g>
<path style="fill:#E7C080;" d="M205.548,382.879c-12.442,16.003-31.876,26.313-53.72,26.313c-21.863,0-41.314-10.311-53.739-26.331
	c13.741-13.741,32.728-22.252,53.72-22.252S191.807,369.119,205.548,382.879z"/>
<path style="fill:#D5A03C;" d="M316.477,466.446c-41.698,26.443-104.11,43.971-197.401,34.599v-0.011l2.295-38.02
	c0,0,12.202-1.248,30.465-4.714h0.011c0,0,69.377,34.388,164.595,8.157C316.455,466.457,316.466,466.446,316.477,466.446z"/>
<path style="fill:#4D4D4D;" d="M453.341,212.938c0,49.823-11.038,82.029-25.828,102.817c0,0,0,0,0,0.013
	c-24.45,34.378-59.131,37.522-71.029,37.522c-2.665,0-4.181-0.165-4.181-0.165c15.623-18.223,25.487-40.49,28.581-63.994
	c0.935-7.009,1.25-14.133,0.947-21.28c-0.694-16.456-2.021-32.104-4.471-46.464c-7.123-41.703-23.844-72.67-62.945-81.7
	c-10.949-2.526-21.066-6.327-30.31-10.886c-12.971-6.404-24.236-14.335-33.72-22.43c-19.802-16.861-31.902-34.428-35.704-40.364
	c6.327-32.849,35.249-57.667,69.942-57.667h27.267c4.749,0,9.346,0.189,13.792,0.556c0.062,0,0.126,0,0.177,0.012
	C427.855,17.308,453.341,118.596,453.341,212.938z"/>
<path style="fill:#D5A03C;" d="M273.153,412.569C274.228,419.56,246,429.822,246,429.822l-32.274,12.197
	c4.691-1.627,9.394-3.376,14.063-5.26v-0.178c0-7.633-1.125-14.999-3.22-21.952c40.316-40.316,24.247-80.442,67.583-123.622
	C292.152,291.007,267.908,378.479,273.153,412.569z"/>
<path style="fill:#E7C080;" d="M381.83,267.853c0.303,7.148-0.012,14.271-0.947,21.281h-0.012
	c-18.237,18.249-74.666,7.161-74.666,7.161v-17.682v-23.996c28.581,0,54.13-12.92,71.154-33.228
	C379.808,235.748,381.134,251.397,381.83,267.853z"/>
<path style="fill:#F9DCA4;" d="M377.362,221.388c-8.285,9.876-18.59,18.01-30.273,23.743c-12.327,6.075-26.206,9.484-40.882,9.484
	c-6.769,0-13.374-0.72-19.74-2.109c-41.779-9.043-73.087-46.224-73.087-90.717V79.583c0-4.648,0.442-9.182,1.3-13.577
	c3.802,5.936,15.9,23.503,35.704,40.364c9.485,8.095,20.751,16.027,33.72,22.43c9.244,4.559,19.361,8.361,30.31,10.886
	c0.076,0.013,0.139,0.038,0.215,0.05C353.581,148.831,370.252,179.761,377.362,221.388z"/>
<g>
	<path style="fill:#E7C080;" d="M286.468,252.507c-41.779-9.043-73.087-46.224-73.087-90.717V79.583c0-4.648,0.442-9.182,1.3-13.577
		c3.802,5.936,15.9,23.503,35.704,40.364c0,0-9.661,100.38,36.057,146.111C286.454,252.494,286.454,252.494,286.468,252.507z"/>
	<path style="fill:#E7C080;" d="M377.362,221.388c-8.285,9.876-18.59,18.01-30.273,23.743
		c-0.038-62.478-31.359-103.953-32.458-105.394C353.581,148.831,370.252,179.761,377.362,221.388z"/>
</g>
<path style="fill:#333333;" d="M296.192,8.341v0.013c0,0-54.484,35.388-45.819,97.879c0.012,0.05,0.012,0.088,0.012,0.139
	c-19.802-16.861-31.902-34.428-35.704-40.364c6.327-32.849,35.249-57.667,69.942-57.667h11.569V8.341z"/>
<path d="M110.517,266.665c-2.925,2.272-3.998,6.367-2.575,9.785c1.286,3.088,4.375,5.159,7.722,5.159
	c4.097,0,7.644-3.096,8.264-7.128C125.053,267.142,116.308,262.167,110.517,266.665z"/>
<path d="M187.983,281.608c4.095,0,7.644-3.091,8.263-7.128c1.173-7.655-8.296-12.577-13.942-7.363
	C176.82,272.182,180.551,281.608,187.983,281.608z"/>
<path d="M176.638,302.08c-3.263-3.265-8.555-3.264-11.818,0c-3.472,3.472-8.089,5.385-13.001,5.385c-4.911,0-9.527-1.912-13-5.385
	c-3.264-3.264-8.556-3.265-11.818,0c-3.265,3.264-3.265,8.555-0.001,11.818c6.629,6.63,15.444,10.281,24.819,10.281
	c9.376,0,18.191-3.65,24.82-10.281C179.903,310.636,179.903,305.344,176.638,302.08z"/>
<path d="M450.136,113.826c-9.486-34.481-24.739-61.588-45.337-80.569c-3.393-3.127-8.681-2.912-11.809,0.482
	c-3.128,3.394-2.912,8.682,0.484,11.809c42.717,39.364,51.684,112.761,51.684,167.402c0,53.626-12.895,91.779-38.328,113.4
	c-12.825,10.904-26.572,15.488-36.961,17.362c14.444-22.59,21.643-49.061,20.487-76.2c-0.779-18.467-2.278-34.01-4.582-47.519
	c-4.087-23.928-10.922-42.415-20.896-56.52c-11.628-16.445-27.915-27.184-48.408-31.916c-51.223-11.822-83.282-53.42-92.682-67.191
	c6.895-27.802,32.036-47.651,61.014-47.651h31.599c2.778,0,5.544,0.155,8.225,0.46c0.143,0.021,0.288,0.039,0.433,0.052l0.182,0.018
	c0.121,0.011,0.244,0.021,0.366,0.027c18.405,1.548,34.898,6.417,49.027,14.476c4.01,2.285,9.114,0.89,11.399-3.119
	c2.288-4.009,0.89-9.114-3.119-11.401c-16.275-9.282-35.109-14.873-55.981-16.619c-0.109-0.012-0.211-0.022-0.306-0.03
	C323.284,0.195,319.846,0,316.401,0h-31.599c-37.985,0-70.767,26.954-78.079,64.113c-0.02,0.086-0.038,0.172-0.056,0.257
	c-0.003,0.017-0.008,0.033-0.011,0.05c-0.965,4.944-1.455,10.051-1.455,15.179v82.205c0,8.218,0.992,16.208,2.85,23.864
	c-16.048-10.907-35.408-17.287-56.232-17.287c-20.098,0-39.49,5.925-56.081,17.133c-3.825,2.584-4.831,7.779-2.248,11.604
	c2.583,3.824,7.777,4.829,11.603,2.246c11.353-7.67,24.285-12.361,37.828-13.794c-1.566,12.377-6.533,22.717-14.83,30.819
	c-15.628,15.262-39.723,19.885-53.869,21.278c3.391-8.491,8.159-16.438,14.207-23.47c3.01-3.499,2.614-8.775-0.885-11.786
	c-3.499-3.01-8.775-2.614-11.786,0.885c-15.628,18.166-24.235,41.384-24.235,65.378c0,41.772,25.673,77.656,62.067,92.717
	c-7.808,3.979-15.032,9.186-21.403,15.561c-15.931,15.916-24.704,37.091-24.704,59.626v13.18c-2.082,0.961-6.811,4.337-6.811,4.337
	c-8.686,6.874-12.389,17.82-9.663,28.565c2.718,10.713,11.163,18.547,22.032,20.442l0.461,0.08
	c33.871,5.88,65.479,8.815,94.761,8.815c68.568,0,124.376-16.095,166.581-48.157c56.74-43.104,69.805-100.972,72.423-117.1
	c3.48-2.216,6.96-4.745,10.385-7.658c29.339-24.943,44.216-67.38,44.216-126.135C461.872,175.486,457.923,142.136,450.136,113.826z
	 M248.9,352.513c-5.04,16.032-9.856,31.331-21.631,46.471c-8.084-16.156-21.202-29.361-37.289-37.561
	c36.429-15.044,62.134-50.946,62.134-92.744c0-8.029-0.954-15.838-2.745-23.326c14.083,9.641,30.714,15.818,48.659,17.292v11.822
	C264.9,301.633,256.767,327.487,248.9,352.513z M193.741,383.594c-11.1,11.028-25.99,17.24-41.914,17.24
	c-15.947,0-30.855-6.221-41.959-17.267c11.891-9.45,26.518-14.595,41.954-14.595C167.648,368.972,182.209,374.453,193.741,383.594z
	 M314.742,262.648c21.014-1.729,40.812-9.954,56.812-23.452c0.956,8.753,1.651,18.363,2.102,29.026
	c0.238,5.595,0.066,11.155-0.497,16.648c-6.496,4.584-19.025,6.839-35.817,6.352c-8.861-0.254-17.116-1.222-22.599-2.014
	L314.742,262.648L314.742,262.648z M275.93,133.865v47.192c0,4.615,3.741,8.357,8.357,8.357h20.44c4.617,0,8.357-3.742,8.357-8.357
	s-3.741-8.357-8.357-8.357h-12.082v-31.107c6.362,2.494,13.041,4.631,20.065,6.252c30.592,7.065,47.932,29.052,55.886,71.076
	c-15.998,17.429-38.455,27.355-62.211,27.355c-46.576,0-84.469-37.892-84.469-84.469V89.328
	C233.547,103.032,251.699,120.833,275.93,133.865z M229.42,237.692c-14.105-1.369-38.125-5.963-53.822-21.251
	c-8.326-8.109-13.31-18.463-14.879-30.863C191.983,188.901,218.137,209.54,229.42,237.692z M68.24,268.678
	c0-4.669,0.407-9.299,1.172-13.852c14.562-0.752,48.186-4.88,70.293-26.411c4.926-4.798,8.959-10.149,12.115-16.017
	c3.156,5.868,7.188,11.219,12.115,16.017c22.11,21.534,55.736,25.659,70.295,26.411c0.755,4.509,1.169,9.132,1.169,13.852
	c0,46.086-37.493,83.579-83.579,83.579S68.24,314.763,68.24,268.678z M98.142,395.476c14.213,14.121,33.286,22.073,53.685,22.073
	c20.377,0,39.432-7.943,53.641-22.048c7.71,10.044,12.657,22.302,13.725,35.644c-46.492,17.572-95.021,23.152-98.487,23.532
	c-1.178,0.04-12.396,0.25-31.891-6.138c-1.521-0.498-3.064-0.855-4.615-1.096v-10.86C84.2,421.514,89.107,407.214,98.142,395.476z
	 M75.922,486.639c-4.361-0.76-7.616-3.783-8.707-8.087c-1.1-4.336,0.333-8.578,3.833-11.349l0.898-0.71
	c3.297-2.611,7.655-3.385,11.666-2.073c12.702,4.162,22.41,5.881,28.904,6.564l-1.258,20.8c-11.333-1.322-22.95-2.995-34.889-5.068
	L75.922,486.639z M324.466,450.741c-47.08,35.623-113.061,49.923-196.566,42.738l1.393-23.017c13.131-1.764,42.804-6.49,75.233-16.6
	c58.684-18.298,95.977-44.421,110.841-77.643c1.885-4.213-0.002-9.156-4.214-11.042c-4.212-1.882-9.157,0.001-11.042,4.215
	c-10.962,24.499-36.427,42.319-64.839,55.125c-0.364-2.531-0.849-5.021-1.433-7.475c18.601-20.07,24.907-40.106,31.009-59.518
	c6.456-20.538,12.616-40.117,33.209-60.613c0.27,3.732,3.001,6.864,6.719,7.595c3.159,0.621,18.923,3.532,36.405,3.532
	c9.464,0,19.427-0.858,28.168-3.39c-4.492,15.693-12.338,30.37-23.211,43.05c-2.02,2.355-2.568,5.634-1.425,8.518
	c1.141,2.884,3.788,4.897,6.871,5.231c0.329,0.036,2.113,0.212,5.079,0.212c6.102,0,17.87-0.768,31.41-5.563
	C382.214,378,366.2,419.16,324.466,450.741z"/>
<path d="M244.377,155.606l13.892,1.263c0.256,0.023,0.513,0.035,0.767,0.035c4.273,0,7.918-3.263,8.313-7.601
	c0.418-4.597-2.97-8.662-7.566-9.079l-13.892-1.263c-4.582-0.415-8.662,2.97-9.078,7.566
	C236.392,151.123,239.78,155.188,244.377,155.606z"/>
<path d="M296.517,230.119c9.376,0,18.191-3.65,24.82-10.281c3.264-3.264,3.264-8.556-0.001-11.818
	c-3.263-3.265-8.555-3.264-11.818,0c-3.472,3.472-8.089,5.385-13.001,5.385c-4.911,0-9.527-1.912-13-5.385
	c-3.264-3.264-8.556-3.265-11.818,0c-3.265,3.264-3.265,8.555-0.001,11.818C278.326,226.467,287.141,230.119,296.517,230.119z"/>
<g>
</g>
<g>
</g>
<g>
</g>
<g>
</g>
<g>
</g>
<g>
</g>
<g>
</g>
<g>
</g>
<g>
</g>
<g>
</g>
<g>
</g>
<g>
</g>
<g>
</g>
<g>
</g>
<g>
</g>
</svg>
