<?xml version="1.0"?>
<svg xmlns="http://www.w3.org/2000/svg" id="Capa_1" enable-background="new 0 0 512 512" height="512" viewBox="0 0 512 512" width="512"><g><g><g><path d="m493.807 94.595c-19.391-36.273-51.786-62.822-91.219-74.754-81.284-24.595-167.482 21.362-192.146 102.453-11.912 39.246-7.826 80.786 11.507 116.968 1.951 3.653 6.497 5.034 10.149 3.081 3.653-1.952 5.033-6.496 3.081-10.149-17.444-32.648-21.131-70.131-10.384-105.539 22.259-73.186 100.071-114.662 173.45-92.456 35.595 10.77 64.835 34.731 82.335 67.468 17.445 32.636 21.126 70.104 10.364 105.502-13.628 44.811-48.691 79.508-93.795 92.813-1.941.572-3.568 1.905-4.512 3.696-17.521 33.234-32.284 43.025-50.16 44.714 1.968-4.304 4.384-10.222 6.399-17.902 1.333-5.061 1.53-14.777-12.123-22.982-6.587-3.958-14.288-6.314-17.576-7.321-.319-.097-.587-.178-.796-.244-.279-.124-.566-.23-.862-.319-24.796-7.493-46.894-21.648-63.905-40.935-2.74-3.106-7.479-3.405-10.586-.664-3.106 2.74-3.404 7.479-.664 10.586 18.784 21.298 43.156 36.949 70.496 45.275.635.25 1.285.448 1.928.645 2.762.845 9.229 2.824 14.238 5.834 2.258 1.357 5.956 3.981 5.342 6.312-2.374 9.046-5.343 15.165-7.308 19.214-2.238 4.612-4.352 8.967-1.628 13.421 1.176 1.924 3.61 4.24 8.527 4.344.66.014 1.31.021 1.959.021 29.467-.001 48.989-14.306 68.505-50.236 48.496-15.377 86.076-53.263 100.87-101.908 11.93-39.237 7.85-80.765-11.486-116.938zm-172.478 207.683c-.219-.289-.456-.562-.712-.815.242.239.482.511.712.815z" data-original="#313131" class="active-path" style="fill:#313131" data-old_color="#313131"/><path d="m368.928 77.991h-22.09c-12.509 0-22.685 10.146-22.685 22.618v27.88h-27.971c-12.493 0-22.657 10.146-22.657 22.618v22.063c0 12.471 10.164 22.618 22.657 22.618h27.971v27.88c0 12.472 10.177 22.618 22.685 22.618h22.09c12.493 0 22.657-10.146 22.657-22.618v-27.88h27.971c12.509 0 22.685-10.146 22.685-22.618v-22.063c0-12.472-10.177-22.618-22.685-22.618h-27.971v-27.88c0-12.471-10.164-22.618-22.657-22.618zm50.627 65.498c4.238 0 7.686 3.417 7.686 7.618v22.063c0 4.2-3.448 7.618-7.686 7.618h-35.471c-4.142 0-7.5 3.358-7.5 7.5v35.38c0 4.2-3.435 7.618-7.657 7.618h-22.09c-4.238 0-7.686-3.417-7.686-7.618v-35.38c0-4.142-3.358-7.5-7.5-7.5h-35.471c-4.222 0-7.657-3.417-7.657-7.618v-22.063c0-4.2 3.435-7.618 7.657-7.618h35.471c4.142 0 7.5-3.358 7.5-7.5v-35.38c0-4.2 3.448-7.618 7.686-7.618h22.09c4.222 0 7.657 3.417 7.657 7.618v35.38c0 4.142 3.358 7.5 7.5 7.5z" data-original="#e63946" class="active-path" style="fill:#e63946" data-old_color="#e63946"/><path d="m335.768 394.065-44.179-36.837c-12.639-10.543-30.333-10.35-41.153.443l-11.217 11.162c-5.67 3.302-15.536 1.66-27.906-4.668-39.363-20.14-84.304-75.014-85.069-97.01-.138-3.975 1.296-4.839 1.986-5.255.521-.314 1.001-.69 1.431-1.12l11.77-11.768c10.841-10.812 11.035-28.485.452-41.106l-36.934-44.071c-22.168-26.427-41.271-29.557-53.39-27.529-15.594 2.609-28.737 15.045-36.058 34.121-25.32 65.979-19.664 115.971 17.292 152.833l41.917 41.782c2.933 2.923 7.682 2.916 10.607-.017 2.924-2.934 2.916-7.683-.017-10.607l-41.916-41.78c-32.756-32.673-37.167-76.154-13.881-136.838 5.29-13.782 14.459-23.016 24.529-24.701 11.85-1.981 25.481 5.754 39.421 22.372l36.933 44.069c4.833 5.764 6.54 14.776.444 20.856l-11.206 11.205c-5.681 3.838-8.645 10.214-8.372 18.073.712 20.481 22.688 48.032 32.103 58.926 19.056 22.049 41.906 41.083 61.124 50.916 18.343 9.385 33.017 10.545 43.615 3.447.401-.269.774-.575 1.116-.915l11.811-11.752c6.107-6.09 15.165-4.384 20.959.45l44.181 36.838c16.639 13.875 24.394 27.445 22.428 39.244-1.676 10.055-10.936 19.211-24.769 24.494-60.86 23.234-104.468 18.834-137.235-13.85l-76.213-76.018c-2.933-2.926-7.682-2.92-10.606.014-2.925 2.933-2.919 7.681.014 10.606l76.213 76.018c21.879 21.823 48.366 32.7 80.072 32.698 21.831-.001 46.141-5.16 73.107-15.455 19.145-7.311 31.616-20.447 34.215-36.041 2.014-12.095-1.14-31.149-27.619-53.229z" data-original="#313131" class="active-path" style="fill:#313131" data-old_color="#313131"/></g></g></g> </svg>
