<svg width="482" height="512" viewBox="0 0 482 512" fill="none" xmlns="http://www.w3.org/2000/svg">
<mask id="mask0" mask-type="alpha" maskUnits="userSpaceOnUse" x="171" y="228" width="140" height="215">
<rect x="171" y="228" width="140" height="214.757" fill="#C4C4C4"/>
</mask>
<g mask="url(#mask0)">
<path d="M506.418 231.766L471.789 252.752C464.189 257.313 459.679 265.016 459.255 274.034C450.206 245.052 425.4 228.942 388.178 228.942C345.989 228.942 320.178 251.778 314.905 288.704C311.128 251.122 276.139 228.942 243.429 228.942C209.671 228.942 173.792 250.214 173.792 289.638C173.792 309.655 184.218 321.135 202.398 321.135C223.028 321.135 234.159 308.158 234.159 295.949C234.159 290.065 235.753 286.418 243.691 286.418C251.787 286.418 253.486 291.03 253.486 294.897C253.486 319.996 170.633 346.235 170.633 393.265V418.779C170.633 433.671 186.941 441.601 198.713 441.601H292.349C304.576 441.601 314.905 428.62 314.905 413.257C314.905 397.918 304.787 385.439 292.349 385.439H240.24C260.819 368.351 305.211 347.996 313.542 307.153V370.909C313.542 416.837 340.745 443.177 388.177 443.177C435.777 443.177 463.074 416.837 463.074 370.909C463.074 295.25 463.317 296.75 462.345 288.704C466.952 297.793 476.139 303.527 486.3 301.542V418.778C486.302 449.26 547.722 449.301 547.722 418.782V251.501C547.725 232.12 520.615 222.966 506.418 231.766ZM213.245 395.636C213.245 401.266 217.808 405.83 223.439 405.83H291.842C292.747 406.548 294.517 409.311 294.517 413.258C294.517 417.377 292.67 420.363 291.688 421.212H198.716C195.732 421.212 192.053 419.452 191.025 418.236V393.267C191.025 358.752 273.878 335.612 273.878 294.898C273.878 257.214 213.771 254.718 213.771 295.949C213.771 297.27 210.275 300.746 202.398 300.746C197.627 300.746 194.182 300.746 194.182 289.638C194.182 236.068 294.518 234.887 294.518 293.583C294.518 346.708 213.245 357.96 213.245 395.636ZM442.688 370.91C442.688 405.334 424.348 422.789 388.181 422.789C352.186 422.789 333.936 405.334 333.936 370.91V301.212C333.936 266.788 352.187 249.333 388.181 249.333C424.35 249.333 442.688 266.788 442.688 301.212V370.91ZM527.337 418.548C524.054 422.048 509.975 422.046 506.696 418.548V284.903C506.696 276.901 497.882 272.043 491.123 276.242C490.579 276.579 482.904 281.442 482.296 281.547C480.759 281.547 477.054 273.38 482.319 270.212C520.939 246.808 516.916 248.806 519.383 248.806C523.207 248.806 526.629 250.65 527.337 251.712V418.548Z" fill="black"/>
</g>
<path d="M473.649 316.668C477.792 316.668 481.149 313.31 481.149 309.168C481.149 302.16 481.149 87.003 481.149 72.791C481.149 61.053 471.599 51.504 459.863 51.504H399.587V29.776C399.587 16.136 388.49 5.041 374.853 5.041C361.213 5.041 350.118 16.138 350.118 29.776V51.502H262.743V24.734C262.74 11.096 251.645 0 238.007 0C224.369 0 213.274 11.096 213.274 24.734V51.502H125.897V27.981C125.897 14.342 114.8 3.247 101.163 3.247C87.526 3.247 76.426 14.342 76.426 27.981V51.502H22.138C10.4 51.502 0.850952 61.052 0.850952 72.789C0.850952 85.511 0.850952 483.332 0.850952 490.711C0.850952 502.45 10.401 512 22.138 512H459.862C471.599 512 481.148 502.45 481.148 490.712V344.168C481.148 340.026 477.791 336.668 473.648 336.668C469.506 336.668 466.148 340.026 466.148 344.168V490.711C466.148 494.178 463.329 496.998 459.863 496.998H22.138C18.672 496.998 15.852 494.178 15.852 490.711V179.766H466.148V309.168C466.148 313.309 469.506 316.668 473.649 316.668ZM365.116 29.776C365.116 24.408 369.483 20.041 374.851 20.041C380.218 20.041 384.585 24.408 384.585 29.776C384.585 41.52 384.585 73.213 384.585 84.925C384.585 90.289 380.22 94.658 374.851 94.658C369.484 94.658 365.116 90.292 365.116 84.925C365.116 73.208 365.116 41.509 365.116 29.776ZM228.273 24.734C228.273 19.367 232.639 15 238.006 15C243.372 15 247.739 19.366 247.739 24.734C247.739 30.661 247.739 73.665 247.739 79.883C247.739 85.25 243.373 89.617 238.006 89.617C232.64 89.617 228.273 85.251 228.273 79.883C228.273 73.666 228.273 30.663 228.273 24.734ZM91.427 27.981C91.427 22.614 95.793 18.247 101.16 18.247C106.527 18.247 110.894 22.613 110.894 27.981C110.894 37.454 110.894 71.192 110.894 83.13C110.894 88.497 106.528 92.864 101.16 92.864C95.794 92.864 91.427 88.498 91.427 83.13C91.427 72.76 91.427 39.789 91.427 27.981ZM15.852 164.765V147.351H220.506C224.649 147.351 228.006 143.993 228.006 139.851C228.006 135.709 224.649 132.351 220.506 132.351H15.852V72.789C15.852 69.323 18.672 66.503 22.138 66.503H76.426V83.13C76.426 96.769 87.522 107.864 101.159 107.864C114.797 107.864 125.893 96.768 125.893 83.13V66.503H213.27V79.884C213.27 93.523 224.366 104.618 238.003 104.618C251.641 104.618 262.736 93.522 262.736 79.884V66.503H350.111V84.925C350.111 98.564 361.208 109.658 374.846 109.658C388.485 109.658 399.58 98.562 399.58 84.925V66.503H459.856C463.322 66.503 466.141 69.323 466.141 72.789V132.35H255.508C251.365 132.35 248.008 135.708 248.008 139.85C248.008 143.992 251.365 147.35 255.508 147.35H466.148V164.764H15.852V164.765Z" fill="black"/>
</svg>
