<?xml version="1.0" encoding="iso-8859-1"?>
<!-- Generator: Adobe Illustrator 19.0.0, SVG Export Plug-In . SVG Version: 6.00 Build 0)  -->
<svg version="1.1" id="Capa_1" xmlns="http://www.w3.org/2000/svg" xmlns:xlink="http://www.w3.org/1999/xlink" x="0px" y="0px"
	 viewBox="0 0 512 512" style="enable-background:new 0 0 512 512;" xml:space="preserve">
<g>
	<g>
		<path d="M435.244,271.866c-2.93-2.928-7.678-2.928-10.607,0c-2.929,2.93-2.929,7.678,0,10.607l42.922,42.921
			C486.544,344.371,497,369.617,497,396.48c0,26.847-10.456,52.089-29.443,71.076c-19.6,19.6-45.336,29.398-71.082,29.395
			c-25.738-0.002-51.486-9.801-71.081-29.395l-58.787-58.788L478.165,197.21C499.983,175.392,512,146.381,512,115.523
			c0-30.857-12.017-59.868-33.836-81.688C456.345,12.017,427.334,0,396.477,0c-30.857,0-59.868,12.017-81.688,33.836l-58.788,58.788
			l-58.787-58.788C152.169-11.206,78.879-11.205,33.836,33.837C12.017,55.657,0,84.666,0,115.52
			c0,30.871,12.018,59.885,33.837,81.694l42.96,42.95c1.465,1.464,3.384,2.196,5.303,2.196c1.92,0,3.84-0.732,5.304-2.197
			c2.929-2.93,2.929-7.678-0.001-10.607l-42.961-42.951C25.456,167.629,15,142.383,15,115.52c0-26.847,10.456-52.089,29.443-71.076
			c39.193-39.193,102.968-39.195,142.163,0l58.787,58.788L33.836,314.789C12.017,336.608,0,365.619,0,396.477
			c0,30.857,12.017,59.868,33.836,81.688C55.655,499.983,84.666,512,115.523,512c30.858,0,59.868-12.017,81.688-33.836
			l58.788-58.788l58.787,58.788c22.522,22.521,52.105,33.781,81.689,33.781s59.168-11.261,81.689-33.782
			C499.983,456.343,512,427.334,512,396.48c0-30.871-12.018-59.885-33.836-81.694L435.244,271.866z M186.604,467.557
			C167.617,486.544,142.374,497,115.523,497s-52.094-10.456-71.08-29.443C25.456,448.57,15,423.327,15,396.477
			c0-26.851,10.456-52.094,29.443-71.08L325.397,44.443C344.383,25.456,369.626,15,396.477,15c26.85,0,52.094,10.456,71.08,29.443
			C486.544,63.43,497,88.673,497,115.523c0,26.851-10.456,52.094-29.443,71.08L186.604,467.557z"/>
	</g>
</g>
<g>
	<g>
		<path d="M185.671,116.91c-0.101-0.48-0.24-0.95-0.43-1.4c-0.19-0.45-0.421-0.89-0.69-1.3c-0.27-0.41-0.59-0.79-0.93-1.141
			c-0.351-0.34-0.73-0.659-1.141-0.93c-0.41-0.27-0.85-0.5-1.3-0.689c-0.45-0.19-0.92-0.33-1.399-0.431
			c-0.971-0.189-1.971-0.189-2.931,0c-0.479,0.101-0.95,0.24-1.41,0.431c-0.449,0.189-0.88,0.42-1.29,0.689
			c-0.409,0.271-0.79,0.59-1.14,0.93c-0.35,0.351-0.66,0.73-0.93,1.141c-0.27,0.41-0.5,0.85-0.69,1.3
			c-0.189,0.45-0.33,0.92-0.43,1.4c-0.101,0.489-0.15,0.979-0.15,1.47c0,0.49,0.05,0.979,0.15,1.46c0.1,0.479,0.24,0.95,0.43,1.41
			c0.19,0.45,0.42,0.89,0.69,1.29c0.27,0.41,0.59,0.8,0.93,1.14c0.35,0.351,0.73,0.66,1.14,0.93c0.41,0.271,0.841,0.5,1.29,0.69
			c0.46,0.19,0.931,0.33,1.41,0.43c0.48,0.101,0.97,0.15,1.46,0.15s0.98-0.05,1.471-0.15c0.479-0.1,0.949-0.239,1.399-0.43
			c0.45-0.191,0.89-0.42,1.3-0.69c0.41-0.27,0.79-0.579,1.141-0.93c0.34-0.34,0.66-0.729,0.93-1.14c0.27-0.4,0.5-0.84,0.69-1.29
			c0.189-0.46,0.329-0.931,0.43-1.41c0.09-0.48,0.14-0.97,0.14-1.46S185.761,117.4,185.671,116.91z"/>
	</g>
</g>
<g>
	<g>
		<path d="M153.651,143.04c-0.35-0.34-0.729-0.66-1.14-0.931c-0.41-0.27-0.84-0.5-1.3-0.689c-0.45-0.19-0.92-0.33-1.4-0.43
			c-0.97-0.19-1.96-0.19-2.93,0c-0.48,0.1-0.95,0.239-1.4,0.43c-0.461,0.189-0.891,0.42-1.301,0.689
			c-0.41,0.27-0.79,0.591-1.14,0.931c-1.391,1.4-2.19,3.33-2.19,5.31c0,0.48,0.05,0.98,0.141,1.46c0.1,0.48,0.239,0.95,0.43,1.4
			c0.189,0.46,0.42,0.89,0.689,1.3c0.27,0.41,0.58,0.79,0.931,1.14c0.35,0.341,0.73,0.66,1.14,0.931c0.41,0.27,0.84,0.5,1.3,0.689
			c0.45,0.191,0.92,0.33,1.4,0.431c0.48,0.1,0.98,0.149,1.47,0.149c0.48,0,0.98-0.05,1.46-0.149c0.48-0.101,0.95-0.24,1.4-0.431
			c0.46-0.189,0.89-0.42,1.3-0.689c0.41-0.27,0.79-0.59,1.14-0.931c0.341-0.35,0.66-0.729,0.931-1.14c0.27-0.41,0.5-0.84,0.689-1.3
			c0.191-0.45,0.33-0.92,0.431-1.4c0.1-0.48,0.149-0.98,0.149-1.46C155.851,146.371,155.051,144.44,153.651,143.04z"/>
	</g>
</g>
<g>
	<g>
		<path d="M125.73,176.85c-0.1-0.479-0.239-0.95-0.43-1.41c-0.19-0.449-0.42-0.88-0.69-1.29c-0.27-0.409-0.579-0.79-0.93-1.14
			c-1.741-1.74-4.33-2.54-6.77-2.05c-0.48,0.1-0.95,0.24-1.4,0.43c-0.45,0.18-0.89,0.42-1.3,0.69c-0.41,0.27-0.79,0.58-1.141,0.93
			c-0.34,0.35-0.659,0.73-0.93,1.14c-0.27,0.41-0.5,0.841-0.689,1.29c-0.181,0.46-0.33,0.931-0.431,1.41
			c-0.09,0.48-0.14,0.97-0.14,1.46s0.05,0.98,0.14,1.471c0.101,0.479,0.25,0.949,0.431,1.399c0.189,0.45,0.42,0.89,0.689,1.3
			c0.271,0.41,0.59,0.79,0.93,1.141c0.351,0.34,0.73,0.66,1.141,0.93c0.41,0.27,0.85,0.5,1.3,0.69c0.45,0.189,0.92,0.329,1.4,0.43
			c0.489,0.09,0.979,0.14,1.47,0.14c0.49,0,0.979-0.05,1.46-0.14c0.479-0.101,0.95-0.24,1.41-0.43c0.45-0.19,0.89-0.421,1.29-0.69
			c0.41-0.27,0.8-0.59,1.14-0.93c0.351-0.351,0.66-0.73,0.93-1.141c0.271-0.41,0.5-0.85,0.69-1.3s0.33-0.92,0.43-1.399
			c0.101-0.49,0.15-0.98,0.15-1.471C125.88,177.82,125.83,177.33,125.73,176.85z"/>
	</g>
</g>
<g>
	<g>
		<path d="M144.331,103.76c-0.341-0.34-0.722-0.66-1.142-0.93c-0.4-0.271-0.84-0.5-1.29-0.69c-0.449-0.189-0.92-0.33-1.399-0.43
			c-0.97-0.19-1.97-0.19-2.94,0c-0.47,0.1-0.95,0.24-1.399,0.43c-0.45,0.19-0.891,0.42-1.29,0.69c-0.41,0.27-0.801,0.59-1.141,0.93
			c-0.35,0.35-0.66,0.73-0.94,1.14c-0.27,0.41-0.5,0.841-0.681,1.301c-0.189,0.449-0.34,0.92-0.43,1.399
			c-0.1,0.48-0.149,0.98-0.149,1.47c0,0.48,0.05,0.98,0.149,1.461c0.09,0.48,0.24,0.949,0.43,1.399c0.181,0.46,0.41,0.89,0.681,1.3
			c0.279,0.41,0.59,0.79,0.94,1.141c1.391,1.39,3.33,2.189,5.301,2.189c0.489,0,0.979-0.04,1.47-0.14
			c0.48-0.101,0.95-0.24,1.399-0.43c0.45-0.19,0.891-0.421,1.29-0.69c0.42-0.27,0.801-0.59,1.141-0.93
			c0.35-0.351,0.66-0.73,0.939-1.141c0.27-0.41,0.5-0.84,0.691-1.3c0.18-0.45,0.33-0.92,0.42-1.399c0.1-0.48,0.15-0.98,0.15-1.461
			C146.531,107.09,145.73,105.16,144.331,103.76z"/>
	</g>
</g>
<g>
	<g>
		<path d="M116.42,137.559c-0.101-0.469-0.24-0.95-0.43-1.399c-0.19-0.45-0.421-0.891-0.69-1.29c-0.27-0.41-0.59-0.801-0.93-1.141
			c-0.351-0.35-0.73-0.66-1.141-0.93c-0.41-0.28-0.84-0.51-1.3-0.69c-0.45-0.189-0.92-0.34-1.399-0.43c-0.971-0.2-1.961-0.2-2.931,0
			c-0.479,0.09-0.95,0.24-1.41,0.43c-0.449,0.181-0.88,0.41-1.29,0.69c-0.409,0.27-0.79,0.58-1.14,0.93
			c-0.35,0.34-0.66,0.73-0.93,1.141c-0.271,0.399-0.5,0.84-0.69,1.29c-0.189,0.449-0.33,0.93-0.43,1.399
			c-0.101,0.49-0.15,0.98-0.15,1.471c0,0.489,0.05,0.979,0.15,1.47c0.1,0.47,0.24,0.95,0.43,1.399c0.19,0.45,0.42,0.891,0.69,1.29
			c0.27,0.42,0.58,0.801,0.93,1.141c0.35,0.35,0.73,0.66,1.14,0.939c0.41,0.27,0.841,0.5,1.29,0.691c0.46,0.18,0.931,0.33,1.41,0.42
			c0.48,0.1,0.98,0.15,1.46,0.15c0.49,0,0.99-0.051,1.471-0.15c0.48-0.09,0.949-0.24,1.399-0.42c0.46-0.191,0.89-0.42,1.3-0.691
			c0.41-0.279,0.79-0.59,1.141-0.939c0.34-0.34,0.66-0.721,0.93-1.141c0.27-0.4,0.5-0.84,0.69-1.29
			c0.19-0.449,0.329-0.93,0.43-1.399c0.1-0.49,0.149-0.98,0.149-1.47C116.569,138.54,116.519,138.05,116.42,137.559z"/>
	</g>
</g>
<g>
	<g>
		<path d="M137.07,68.319c-0.1-0.479-0.24-0.949-0.43-1.409c-0.189-0.45-0.42-0.891-0.689-1.29c-0.27-0.41-0.58-0.801-0.931-1.141
			c-1.739-1.739-4.34-2.54-6.77-2.05c-0.48,0.09-0.95,0.24-1.4,0.43c-0.45,0.181-0.89,0.421-1.3,0.69
			c-0.41,0.27-0.79,0.58-1.14,0.93c-0.341,0.34-0.66,0.73-0.931,1.141c-0.27,0.399-0.5,0.84-0.689,1.29
			c-0.19,0.46-0.33,0.93-0.431,1.409c-0.09,0.48-0.14,0.971-0.14,1.461c0,0.489,0.05,0.98,0.14,1.47
			c0.101,0.479,0.24,0.95,0.431,1.399c0.189,0.45,0.42,0.891,0.689,1.29c0.271,0.42,0.59,0.801,0.931,1.15
			c0.35,0.34,0.729,0.66,1.14,0.93c0.41,0.271,0.85,0.5,1.3,0.69c0.45,0.189,0.92,0.33,1.4,0.42c0.48,0.1,0.98,0.15,1.47,0.15
			c0.48,0,0.98-0.051,1.46-0.15c0.48-0.09,0.95-0.23,1.41-0.42c0.45-0.19,0.88-0.42,1.29-0.69c0.41-0.27,0.79-0.59,1.14-0.93
			c0.351-0.35,0.66-0.73,0.931-1.15c0.27-0.399,0.5-0.84,0.689-1.29c0.19-0.449,0.33-0.92,0.43-1.399
			c0.101-0.49,0.15-0.98,0.15-1.47C137.22,69.29,137.17,68.8,137.07,68.319z"/>
	</g>
</g>
<g>
	<g>
		<path d="M107.1,98.28c-0.09-0.47-0.241-0.95-0.42-1.4c-0.19-0.45-0.42-0.89-0.69-1.29c-0.28-0.41-0.591-0.8-0.94-1.14
			c-0.34-0.351-0.73-0.66-1.14-0.94c-0.4-0.27-0.841-0.5-1.29-0.691c-0.45-0.18-0.931-0.329-1.41-0.42
			c-0.96-0.199-1.96-0.199-2.93,0c-0.471,0.091-0.95,0.24-1.4,0.42c-0.45,0.191-0.89,0.421-1.29,0.691
			c-0.41,0.28-0.8,0.59-1.14,0.94c-0.351,0.34-0.66,0.729-0.94,1.14c-0.27,0.4-0.5,0.84-0.691,1.29c-0.18,0.45-0.329,0.93-0.42,1.4
			c-0.1,0.489-0.149,0.98-0.149,1.47s0.05,0.979,0.149,1.47c0.091,0.47,0.24,0.95,0.42,1.4c0.191,0.449,0.421,0.89,0.691,1.29
			c0.28,0.409,0.59,0.8,0.94,1.14c0.34,0.35,0.729,0.66,1.14,0.94c0.4,0.27,0.84,0.5,1.29,0.69c0.45,0.18,0.93,0.33,1.4,0.42
			c0.489,0.101,0.98,0.15,1.47,0.15s0.979-0.05,1.46-0.15c0.479-0.09,0.96-0.24,1.41-0.42c0.449-0.19,0.89-0.42,1.29-0.69
			c0.409-0.28,0.8-0.591,1.14-0.94c0.35-0.34,0.66-0.73,0.94-1.14c0.27-0.4,0.5-0.841,0.69-1.29c0.18-0.45,0.33-0.931,0.42-1.4
			c0.101-0.49,0.15-0.98,0.15-1.47S107.2,98.77,107.1,98.28z"/>
	</g>
</g>
<g>
	<g>
		<path d="M77.13,128.25c-0.09-0.48-0.24-0.95-0.42-1.4c-0.19-0.451-0.42-0.89-0.69-1.3c-0.279-0.41-0.59-0.79-0.939-1.14
			c-0.34-0.341-0.721-0.66-1.141-0.931c-0.399-0.27-0.84-0.5-1.29-0.689c-0.449-0.19-0.92-0.33-1.399-0.431
			c-0.97-0.189-1.97-0.189-2.931,0c-0.479,0.101-0.949,0.24-1.409,0.431c-0.45,0.189-0.891,0.42-1.29,0.689
			c-0.41,0.271-0.801,0.59-1.141,0.931c-0.35,0.35-0.66,0.729-0.93,1.14c-0.27,0.41-0.51,0.85-0.69,1.3
			c-0.19,0.45-0.34,0.92-0.43,1.4c-0.1,0.48-0.149,0.98-0.149,1.47c0,0.48,0.05,0.98,0.149,1.46c0.09,0.48,0.24,0.95,0.43,1.4
			c0.181,0.46,0.421,0.89,0.69,1.3c0.27,0.41,0.58,0.79,0.93,1.14c0.34,0.34,0.73,0.66,1.141,0.931c0.399,0.27,0.84,0.5,1.29,0.689
			c0.46,0.19,0.93,0.33,1.409,0.43c0.48,0.101,0.971,0.141,1.461,0.141c0.489,0,0.98-0.04,1.47-0.141
			c0.479-0.1,0.95-0.239,1.399-0.43c0.45-0.189,0.891-0.42,1.29-0.689c0.42-0.27,0.801-0.591,1.141-0.931
			c0.35-0.35,0.66-0.73,0.939-1.14c0.271-0.41,0.5-0.84,0.69-1.3c0.18-0.45,0.33-0.92,0.42-1.4c0.1-0.48,0.15-0.98,0.15-1.46
			C77.28,129.23,77.229,128.73,77.13,128.25z"/>
	</g>
</g>
<g>
	<g>
		<path d="M449.57,380.819c-0.1-0.479-0.239-0.949-0.43-1.409c-0.18-0.45-0.42-0.88-0.689-1.29c-0.271-0.41-0.58-0.79-0.931-1.141
			c-0.34-0.35-0.729-0.66-1.14-0.93c-0.4-0.27-0.84-0.5-1.29-0.69c-0.46-0.19-0.93-0.329-1.41-0.43c-0.97-0.2-1.96-0.189-2.93,0
			c-0.48,0.101-0.95,0.24-1.4,0.43c-0.45,0.19-0.89,0.421-1.3,0.69c-0.41,0.27-0.79,0.58-1.14,0.93
			c-0.341,0.351-0.65,0.73-0.931,1.141c-0.27,0.41-0.5,0.84-0.689,1.29c-0.181,0.46-0.33,0.93-0.42,1.409
			c-0.101,0.48-0.15,0.98-0.15,1.461c0,1.979,0.8,3.909,2.19,5.31c0.35,0.34,0.729,0.66,1.14,0.93c0.41,0.27,0.849,0.5,1.3,0.69
			c0.45,0.189,0.92,0.33,1.4,0.43c0.479,0.09,0.979,0.141,1.47,0.141c0.49,0,0.98-0.051,1.46-0.141c0.48-0.1,0.95-0.24,1.41-0.43
			c0.45-0.19,0.89-0.42,1.29-0.69c0.41-0.27,0.8-0.59,1.14-0.93c0.351-0.35,0.66-0.73,0.931-1.14c0.27-0.41,0.51-0.851,0.689-1.301
			c0.191-0.449,0.33-0.92,0.43-1.399c0.101-0.48,0.15-0.98,0.15-1.47C449.72,381.8,449.67,381.3,449.57,380.819z"/>
	</g>
</g>
<g>
	<g>
		<path d="M419.599,410.78c-0.09-0.471-0.24-0.95-0.42-1.4c-0.189-0.45-0.42-0.89-0.7-1.29c-0.27-0.42-0.58-0.8-0.93-1.15
			c-0.34-0.34-0.73-0.65-1.14-0.93c-0.4-0.27-0.841-0.5-1.29-0.69c-0.46-0.18-0.931-0.329-1.41-0.42c-0.96-0.199-1.96-0.199-2.93,0
			c-0.471,0.091-0.95,0.24-1.4,0.42c-0.45,0.19-0.89,0.421-1.29,0.69c-0.42,0.28-0.8,0.59-1.14,0.93
			c-0.351,0.35-0.66,0.73-0.94,1.15c-0.27,0.4-0.5,0.84-0.69,1.29c-0.18,0.45-0.329,0.93-0.42,1.4
			c-0.1,0.489-0.149,0.979-0.149,1.47c0,0.491,0.05,0.979,0.149,1.47c0.091,0.47,0.241,0.95,0.42,1.4
			c0.19,0.449,0.421,0.89,0.69,1.29c0.28,0.409,0.59,0.8,0.94,1.14c0.34,0.35,0.72,0.66,1.14,0.94c0.4,0.27,0.84,0.5,1.29,0.689
			c0.45,0.18,0.93,0.33,1.4,0.42c0.489,0.101,0.979,0.15,1.47,0.15c0.491,0,0.979-0.05,1.46-0.15c0.48-0.09,0.95-0.24,1.41-0.42
			c0.449-0.189,0.89-0.42,1.29-0.689c0.409-0.28,0.8-0.591,1.14-0.94c0.35-0.34,0.66-0.73,0.93-1.14c0.28-0.4,0.511-0.841,0.7-1.29
			c0.18-0.45,0.33-0.931,0.42-1.4c0.101-0.49,0.15-0.979,0.15-1.47C419.749,411.759,419.699,411.27,419.599,410.78z"/>
	</g>
</g>
<g>
	<g>
		<path d="M389.639,440.749c-0.1-0.48-0.24-0.95-0.43-1.4c-0.19-0.45-0.42-0.89-0.69-1.3c-0.27-0.41-0.59-0.79-0.93-1.14
			c-1.75-1.74-4.34-2.54-6.771-2.051c-0.479,0.101-0.949,0.24-1.409,0.431c-0.45,0.189-0.88,0.42-1.29,0.689
			c-0.41,0.271-0.801,0.59-1.141,0.931c-0.35,0.35-0.66,0.729-0.93,1.14c-0.27,0.41-0.5,0.85-0.69,1.3s-0.329,0.92-0.43,1.4
			c-0.1,0.49-0.149,0.979-0.149,1.47c0,1.97,0.8,3.9,2.199,5.3c0.341,0.351,0.732,0.661,1.142,0.931c0.41,0.27,0.84,0.51,1.29,0.689
			c0.46,0.191,0.93,0.33,1.409,0.43c0.48,0.101,0.971,0.15,1.461,0.15c1.979,0,3.909-0.8,5.31-2.2c1.39-1.399,2.19-3.33,2.19-5.3
			C389.78,441.729,389.729,441.24,389.639,440.749z"/>
	</g>
</g>
<g>
	<g>
		<path d="M410.292,371.499c-0.1-0.48-0.24-0.95-0.431-1.4c-0.19-0.45-0.42-0.89-0.69-1.29c-0.27-0.42-0.59-0.8-0.93-1.14
			c-0.351-0.351-0.73-0.66-1.141-0.94c-0.41-0.27-0.84-0.5-1.3-0.689c-0.45-0.181-0.92-0.33-1.4-0.42c-0.97-0.2-1.96-0.2-2.93,0
			c-0.479,0.09-0.95,0.239-1.4,0.42c-0.46,0.189-0.89,0.42-1.3,0.689c-0.41,0.28-0.79,0.59-1.14,0.94c-1.39,1.39-2.19,3.32-2.19,5.3
			c0,1.97,0.801,3.91,2.19,5.3c0.349,0.351,0.729,0.661,1.14,0.931c0.41,0.27,0.84,0.51,1.3,0.689c0.45,0.191,0.921,0.33,1.4,0.43
			c0.48,0.101,0.98,0.15,1.47,0.15c1.971,0,3.9-0.8,5.301-2.2c0.34-0.34,0.659-0.729,0.93-1.14c0.27-0.4,0.5-0.84,0.69-1.29
			s0.33-0.93,0.431-1.41c0.09-0.479,0.14-0.97,0.14-1.46S410.382,371.99,410.292,371.499z"/>
	</g>
</g>
<g>
	<g>
		<path d="M378.269,397.628c-0.34-0.34-0.729-0.66-1.14-0.93c-0.4-0.271-0.84-0.5-1.29-0.69c-0.46-0.19-0.93-0.33-1.41-0.43
			c-2.439-0.49-5.02,0.309-6.76,2.05c-0.351,0.35-0.66,0.729-0.94,1.14c-0.27,0.41-0.5,0.84-0.689,1.3
			c-0.181,0.45-0.33,0.921-0.42,1.4c-0.101,0.48-0.15,0.98-0.15,1.47c0,0.48,0.05,0.98,0.15,1.46c0.09,0.482,0.239,0.952,0.42,1.402
			c0.189,0.46,0.42,0.89,0.689,1.3c0.28,0.41,0.59,0.79,0.94,1.141c1.39,1.399,3.33,2.199,5.3,2.199c0.49,0,0.98-0.05,1.46-0.15
			c0.48-0.1,0.95-0.24,1.41-0.431c0.45-0.19,0.89-0.42,1.29-0.69c0.41-0.27,0.8-0.59,1.14-0.93c1.4-1.4,2.2-3.33,2.2-5.301
			C380.469,400.958,379.669,399.029,378.269,397.628z"/>
	</g>
</g>
<g>
	<g>
		<path d="M400.979,332.218c-0.1-0.479-0.25-0.95-0.43-1.4c-0.19-0.46-0.42-0.89-0.69-1.3c-0.279-0.41-0.59-0.79-0.93-1.14
			c-0.35-0.34-0.729-0.66-1.14-0.93c-0.41-0.271-0.85-0.5-1.3-0.69s-0.921-0.33-1.4-0.43c-0.97-0.191-1.97-0.191-2.93,0
			c-0.48,0.1-0.95,0.239-1.41,0.43c-0.45,0.19-0.891,0.42-1.29,0.69c-0.41,0.27-0.8,0.59-1.141,0.93
			c-0.35,0.35-0.659,0.729-0.93,1.14c-0.27,0.41-0.51,0.84-0.689,1.3c-0.19,0.45-0.341,0.921-0.431,1.4
			c-0.1,0.48-0.149,0.98-0.149,1.47c0,1.971,0.8,3.9,2.199,5.301c0.341,0.35,0.73,0.659,1.141,0.93c0.399,0.27,0.84,0.5,1.29,0.69
			c0.461,0.191,0.931,0.331,1.411,0.431c0.479,0.1,0.97,0.15,1.46,0.15c0.489,0,0.98-0.05,1.47-0.15c0.479-0.1,0.95-0.24,1.4-0.431
			c0.449-0.19,0.89-0.42,1.3-0.69c0.41-0.27,0.79-0.58,1.14-0.93c1.39-1.4,2.19-3.33,2.19-5.301
			C401.12,333.199,401.069,332.699,400.979,332.218z"/>
	</g>
</g>
<g>
	<g>
		<path d="M371.011,362.189c-0.1-0.48-0.24-0.949-0.43-1.409c-0.191-0.45-0.42-0.881-0.691-1.29c-0.27-0.41-0.59-0.79-0.93-1.141
			c-1.74-1.74-4.34-2.54-6.77-2.05c-0.48,0.1-0.949,0.24-1.409,0.43c-0.45,0.19-0.881,0.42-1.29,0.69
			c-0.41,0.27-0.801,0.59-1.141,0.93c-0.35,0.351-0.66,0.73-0.93,1.141c-0.27,0.409-0.5,0.84-0.69,1.29
			c-0.189,0.46-0.33,0.93-0.43,1.409c-0.1,0.48-0.15,0.98-0.15,1.46c0,0.49,0.051,0.99,0.15,1.471c0.1,0.48,0.24,0.949,0.43,1.399
			c0.19,0.46,0.42,0.891,0.69,1.3c0.27,0.41,0.58,0.79,0.93,1.141c0.351,0.34,0.73,0.66,1.141,0.93c0.409,0.271,0.84,0.5,1.29,0.691
			c0.46,0.189,0.93,0.33,1.409,0.43c0.48,0.09,0.98,0.14,1.46,0.14c1.98,0,3.91-0.8,5.311-2.189
			c0.339-0.353,0.659-0.733,0.929-1.143c0.271-0.409,0.5-0.84,0.691-1.3c0.189-0.45,0.33-0.92,0.43-1.399
			c0.1-0.48,0.14-0.98,0.14-1.471C371.151,363.16,371.111,362.669,371.011,362.189z"/>
	</g>
</g>
<g>
	<g>
		<path d="M341.039,392.16c-0.1-0.48-0.24-0.95-0.431-1.41c-0.188-0.45-0.418-0.891-0.688-1.29c-0.27-0.41-0.58-0.8-0.93-1.141
			c-0.351-0.35-0.73-0.659-1.141-0.93c-0.41-0.28-0.84-0.51-1.29-0.689c-0.46-0.19-0.93-0.341-1.41-0.431
			c-2.439-0.489-5.02,0.311-6.77,2.05c-0.34,0.341-0.66,0.73-0.93,1.141c-0.271,0.399-0.5,0.84-0.69,1.29
			c-0.19,0.46-0.33,0.93-0.43,1.41c-0.09,0.479-0.141,0.97-0.141,1.46c0,0.489,0.051,0.98,0.141,1.47c0.1,0.479,0.239,0.95,0.43,1.4
			c0.19,0.449,0.42,0.89,0.69,1.29c0.27,0.42,0.59,0.8,0.93,1.14c0.35,0.35,0.729,0.66,1.14,0.94c0.41,0.271,0.84,0.5,1.3,0.69
			c0.45,0.18,0.921,0.33,1.4,0.42c0.48,0.1,0.98,0.15,1.47,0.15c0.48,0,0.98-0.051,1.46-0.15c0.48-0.09,0.95-0.24,1.41-0.42
			c0.45-0.19,0.88-0.42,1.29-0.69c0.41-0.279,0.79-0.59,1.141-0.94c1.399-1.39,2.199-3.33,2.199-5.3
			C341.189,393.13,341.139,392.64,341.039,392.16z"/>
	</g>
</g>
<g>
	<g>
		<path d="M338.035,230.661l-56.696-56.695c-4.662-4.661-10.86-7.229-17.453-7.229c-6.593,0-12.791,2.567-17.452,7.229
			l-12.493,12.493c-2.929,2.93-2.929,7.678,0,10.607c2.93,2.928,7.678,2.928,10.607,0l12.493-12.494
			c1.828-1.828,4.259-2.835,6.845-2.835s5.018,1.007,6.846,2.836l56.695,56.695c1.829,1.828,2.836,4.26,2.836,6.846
			s-1.007,5.017-2.836,6.845l-72.468,72.469c-1.828,1.828-4.259,2.835-6.845,2.835s-5.018-1.007-6.846-2.836l-56.695-56.695
			c-1.829-1.828-2.836-4.26-2.836-6.846s1.007-5.017,2.836-6.845l38.873-38.873c2.929-2.93,2.929-7.678,0-10.607
			c-2.93-2.928-7.678-2.928-10.607,0l-38.872,38.873c-4.662,4.661-7.229,10.859-7.229,17.452c0,6.593,2.567,12.791,7.229,17.453
			l56.695,56.695c4.662,4.661,10.86,7.228,17.453,7.228c6.593,0,12.791-2.567,17.452-7.228l72.467-72.468
			c4.662-4.661,7.229-10.859,7.229-17.452C345.263,241.521,342.696,235.323,338.035,230.661z"/>
	</g>
</g>
<g>
	<g>
		<path d="M341.04,116.91c-0.1-0.48-0.24-0.95-0.431-1.4c-0.19-0.45-0.42-0.89-0.69-1.3c-0.27-0.41-0.58-0.79-0.93-1.141
			c-0.351-0.34-0.73-0.659-1.141-0.93c-0.41-0.27-0.84-0.5-1.29-0.689c-0.46-0.19-0.93-0.33-1.41-0.431
			c-2.439-0.489-5.02,0.311-6.77,2.05c-0.34,0.351-0.66,0.73-0.93,1.141c-0.271,0.41-0.5,0.85-0.69,1.3
			c-0.19,0.45-0.33,0.92-0.43,1.4c-0.09,0.489-0.141,0.979-0.141,1.47c0,0.49,0.051,0.979,0.141,1.46
			c0.102,0.479,0.241,0.95,0.432,1.41c0.19,0.45,0.42,0.88,0.69,1.29c0.27,0.41,0.59,0.8,0.93,1.14c0.35,0.351,0.729,0.66,1.14,0.93
			c0.41,0.271,0.84,0.511,1.3,0.69c0.45,0.19,0.921,0.33,1.4,0.43c0.48,0.101,0.98,0.15,1.47,0.15c0.48,0,0.98-0.05,1.46-0.15
			c0.48-0.1,0.95-0.239,1.41-0.43c0.45-0.18,0.88-0.42,1.29-0.69c0.41-0.27,0.79-0.579,1.141-0.93c1.399-1.399,2.199-3.33,2.199-5.3
			C341.19,117.89,341.14,117.4,341.04,116.91z"/>
	</g>
</g>
<g>
	<g>
		<path d="M371.011,146.88c-0.101-0.481-0.241-0.95-0.431-1.4c-0.191-0.46-0.42-0.89-0.691-1.3c-0.27-0.41-0.59-0.79-0.93-1.14
			c-1.74-1.74-4.34-2.54-6.77-2.05c-0.48,0.1-0.949,0.239-1.409,0.43c-0.45,0.189-0.881,0.42-1.29,0.689
			c-0.41,0.27-0.79,0.58-1.141,0.931c-1.399,1.4-2.2,3.33-2.2,5.31c0,0.48,0.051,0.98,0.15,1.46c0.1,0.48,0.24,0.95,0.43,1.41
			c0.19,0.45,0.42,0.88,0.69,1.29c0.27,0.41,0.58,0.79,0.93,1.14c0.351,0.341,0.73,0.66,1.141,0.931c0.409,0.27,0.84,0.5,1.29,0.689
			c0.46,0.191,0.93,0.33,1.409,0.431c0.48,0.1,0.98,0.149,1.46,0.149c1.98,0,3.91-0.8,5.311-2.2c0.34-0.35,0.66-0.729,0.93-1.14
			c0.271-0.41,0.5-0.84,0.691-1.29c0.189-0.46,0.33-0.93,0.43-1.41c0.1-0.48,0.14-0.97,0.14-1.46S371.111,147.36,371.011,146.88z"/>
	</g>
</g>
<g>
	<g>
		<path d="M400.98,176.849c-0.1-0.479-0.251-0.95-0.43-1.41c-0.19-0.449-0.42-0.88-0.69-1.29c-0.27-0.409-0.59-0.79-0.93-1.14
			c-0.35-0.35-0.729-0.66-1.14-0.93c-0.41-0.27-0.85-0.511-1.3-0.69c-0.45-0.189-0.921-0.33-1.4-0.43c-0.97-0.191-1.97-0.191-2.93,0
			c-0.48,0.1-0.95,0.24-1.41,0.43c-0.45,0.18-0.891,0.42-1.29,0.69c-0.41,0.27-0.8,0.58-1.141,0.93c-0.35,0.35-0.659,0.73-0.93,1.14
			c-0.27,0.41-0.51,0.841-0.689,1.29c-0.19,0.46-0.341,0.931-0.431,1.41c-0.1,0.48-0.149,0.98-0.149,1.46
			c0,0.49,0.05,0.99,0.149,1.471c0.09,0.479,0.24,0.949,0.431,1.399c0.18,0.45,0.42,0.89,0.689,1.3c0.271,0.41,0.58,0.79,0.93,1.141
			c0.341,0.34,0.73,0.66,1.141,0.93c0.399,0.27,0.84,0.5,1.29,0.69c0.46,0.189,0.93,0.329,1.41,0.43c0.479,0.09,0.97,0.14,1.46,0.14
			c0.489,0,0.98-0.05,1.47-0.14c0.479-0.101,0.95-0.24,1.4-0.43c0.449-0.19,0.89-0.421,1.3-0.69c0.41-0.28,0.79-0.59,1.14-0.93
			c0.34-0.351,0.66-0.73,0.93-1.141c0.271-0.41,0.5-0.85,0.69-1.3c0.18-0.45,0.33-0.92,0.43-1.399c0.09-0.48,0.141-0.98,0.141-1.471
			C401.121,177.829,401.07,177.329,400.98,176.849z"/>
	</g>
</g>
<g>
	<g>
		<path d="M378.269,103.76c-0.339-0.34-0.729-0.66-1.139-0.93c-0.4-0.271-0.84-0.5-1.29-0.69c-0.45-0.189-0.93-0.33-1.41-0.43
			c-0.96-0.19-1.96-0.19-2.93,0c-0.48,0.1-0.95,0.24-1.4,0.43c-0.45,0.19-0.89,0.42-1.29,0.69c-0.42,0.27-0.8,0.59-1.14,0.93
			c-0.351,0.35-0.66,0.73-0.94,1.14c-0.27,0.41-0.5,0.841-0.689,1.301c-0.181,0.449-0.33,0.92-0.42,1.399
			c-0.101,0.48-0.15,0.98-0.15,1.46c0,0.49,0.05,0.99,0.15,1.471c0.09,0.48,0.239,0.949,0.42,1.399c0.189,0.46,0.42,0.89,0.689,1.3
			c0.28,0.41,0.59,0.79,0.94,1.141c1.39,1.39,3.32,2.199,5.3,2.199c0.49,0,0.98-0.05,1.46-0.149c0.48-0.101,0.95-0.24,1.41-0.43
			c0.45-0.19,0.89-0.421,1.29-0.69c0.41-0.27,0.8-0.59,1.14-0.93c0.351-0.351,0.66-0.73,0.94-1.141c0.27-0.41,0.5-0.84,0.689-1.3
			c0.181-0.45,0.33-0.92,0.42-1.399c0.101-0.48,0.15-0.98,0.15-1.471C380.469,107.09,379.669,105.161,378.269,103.76z"/>
	</g>
</g>
<g>
	<g>
		<path d="M410.289,137.559c-0.099-0.469-0.239-0.95-0.43-1.399c-0.19-0.45-0.42-0.891-0.69-1.29c-0.27-0.41-0.59-0.801-0.93-1.141
			c-0.351-0.35-0.73-0.66-1.141-0.94c-0.41-0.27-0.84-0.5-1.3-0.681c-0.45-0.189-0.92-0.34-1.4-0.43c-0.97-0.2-1.96-0.2-2.93,0
			c-0.479,0.09-0.95,0.24-1.4,0.43c-0.46,0.181-0.89,0.41-1.3,0.681c-0.41,0.279-0.79,0.59-1.14,0.94
			c-0.34,0.34-0.66,0.73-0.93,1.141c-0.271,0.399-0.5,0.84-0.69,1.29c-0.19,0.449-0.33,0.93-0.43,1.399
			c-0.101,0.49-0.141,0.98-0.141,1.471c0,1.979,0.801,3.909,2.19,5.3c0.35,0.35,0.729,0.66,1.14,0.939c0.41,0.27,0.84,0.5,1.3,0.691
			c0.45,0.18,0.921,0.33,1.4,0.42c0.48,0.1,0.98,0.15,1.47,0.15c0.48,0,0.98-0.051,1.46-0.15c0.48-0.09,0.95-0.24,1.4-0.42
			c0.46-0.191,0.89-0.42,1.3-0.691c0.41-0.279,0.79-0.59,1.141-0.939c0.34-0.34,0.659-0.721,0.93-1.141c0.27-0.4,0.5-0.84,0.69-1.29
			c0.19-0.449,0.33-0.92,0.431-1.399c0.09-0.49,0.14-0.98,0.14-1.47C410.429,138.54,410.379,138.05,410.289,137.559z"/>
	</g>
</g>
<g>
	<g>
		<path d="M387.59,64.479c-0.35-0.35-0.73-0.66-1.14-0.93c-0.41-0.28-0.841-0.51-1.301-0.69c-0.449-0.19-0.92-0.34-1.399-0.43
			c-0.97-0.2-1.97-0.2-2.931,0c-0.479,0.09-0.949,0.24-1.409,0.43c-0.45,0.181-0.88,0.41-1.29,0.69
			c-0.41,0.27-0.801,0.58-1.141,0.93c-1.399,1.4-2.199,3.33-2.199,5.301c0,1.98,0.8,3.909,2.199,5.3
			c0.34,0.35,0.73,0.66,1.141,0.939c0.41,0.271,0.84,0.5,1.29,0.69c0.46,0.189,0.93,0.33,1.409,0.43
			c0.48,0.09,0.971,0.141,1.461,0.141c1.979,0,3.909-0.801,5.31-2.2c1.389-1.391,2.19-3.32,2.19-5.3
			C389.78,67.809,388.979,65.88,387.59,64.479z"/>
	</g>
</g>
<g>
	<g>
		<path d="M419.6,98.28c-0.09-0.47-0.241-0.95-0.42-1.4c-0.189-0.45-0.42-0.89-0.7-1.29c-0.27-0.41-0.58-0.8-0.93-1.14
			c-1.74-1.75-4.33-2.551-6.77-2.051c-0.471,0.091-0.95,0.24-1.4,0.42c-0.45,0.191-0.89,0.421-1.29,0.691
			c-0.42,0.28-0.8,0.59-1.14,0.94c-0.351,0.34-0.66,0.729-0.94,1.14c-0.27,0.4-0.5,0.84-0.69,1.29c-0.18,0.45-0.329,0.93-0.42,1.4
			c-0.1,0.489-0.149,0.98-0.149,1.47s0.05,0.979,0.149,1.47c0.091,0.47,0.24,0.95,0.42,1.4c0.19,0.449,0.421,0.89,0.69,1.29
			c0.28,0.409,0.59,0.8,0.94,1.14c0.34,0.35,0.72,0.66,1.14,0.94c0.4,0.27,0.84,0.5,1.29,0.69c0.45,0.18,0.93,0.33,1.4,0.42
			c0.489,0.101,0.979,0.15,1.47,0.15c1.979,0,3.91-0.8,5.3-2.2c0.35-0.34,0.66-0.73,0.93-1.14c0.28-0.4,0.511-0.841,0.7-1.29
			c0.18-0.45,0.33-0.931,0.42-1.4c0.101-0.49,0.15-0.98,0.15-1.47S419.7,98.77,419.6,98.28z"/>
	</g>
</g>
<g>
	<g>
		<path d="M449.57,128.25c-0.1-0.48-0.24-0.95-0.43-1.4c-0.18-0.45-0.42-0.89-0.689-1.3c-0.271-0.41-0.58-0.79-0.931-1.14
			c-0.34-0.341-0.729-0.66-1.14-0.931c-0.4-0.27-0.84-0.5-1.29-0.689c-0.46-0.19-0.93-0.33-1.41-0.431
			c-0.97-0.189-1.96-0.189-2.93,0c-0.48,0.101-0.95,0.24-1.4,0.431c-0.45,0.189-0.89,0.42-1.3,0.689
			c-0.41,0.271-0.79,0.59-1.14,0.931c-0.341,0.35-0.65,0.729-0.931,1.14c-0.27,0.41-0.5,0.85-0.689,1.3
			c-0.181,0.45-0.33,0.92-0.42,1.4c-0.101,0.48-0.15,0.98-0.15,1.47c0,1.97,0.8,3.91,2.19,5.3c0.35,0.351,0.729,0.66,1.14,0.931
			c0.41,0.27,0.85,0.5,1.3,0.689c0.45,0.19,0.92,0.33,1.4,0.43c0.479,0.101,0.979,0.15,1.47,0.15c0.49,0,0.98-0.05,1.46-0.15
			c0.48-0.1,0.95-0.239,1.41-0.43c0.45-0.189,0.89-0.42,1.29-0.689c0.41-0.27,0.8-0.58,1.14-0.931c0.351-0.35,0.66-0.73,0.931-1.14
			c0.27-0.41,0.51-0.84,0.689-1.29c0.191-0.46,0.33-0.93,0.43-1.41c0.101-0.48,0.15-0.97,0.15-1.46
			C449.72,129.23,449.67,128.73,449.57,128.25z"/>
	</g>
</g>
<g>
	<g>
		<path d="M77.13,380.819c-0.09-0.479-0.231-0.949-0.42-1.409c-0.19-0.45-0.42-0.88-0.69-1.29c-0.279-0.41-0.59-0.79-0.93-1.141
			c-1.75-1.739-4.34-2.54-6.771-2.05c-0.479,0.101-0.949,0.24-1.409,0.43c-0.45,0.181-0.891,0.421-1.29,0.69
			c-0.41,0.27-0.801,0.58-1.141,0.93c-0.35,0.351-0.66,0.73-0.93,1.141c-0.28,0.41-0.51,0.84-0.69,1.29
			c-0.19,0.46-0.34,0.93-0.43,1.409c-0.1,0.48-0.149,0.971-0.149,1.461c0,0.489,0.05,0.989,0.149,1.47
			c0.09,0.479,0.24,0.95,0.43,1.399c0.181,0.45,0.41,0.891,0.69,1.301c0.27,0.409,0.58,0.79,0.93,1.14
			c1.391,1.39,3.33,2.19,5.301,2.19c1.98,0,3.909-0.801,5.31-2.19c0.34-0.35,0.65-0.73,0.93-1.14c0.271-0.41,0.5-0.851,0.69-1.301
			c0.189-0.449,0.33-0.92,0.42-1.399c0.1-0.48,0.15-0.98,0.15-1.47S77.229,381.3,77.13,380.819z"/>
	</g>
</g>
<g>
	<g>
		<path d="M107.101,410.78c-0.091-0.47-0.242-0.95-0.421-1.4c-0.19-0.45-0.42-0.89-0.69-1.29c-0.28-0.41-0.591-0.8-0.94-1.14
			c-0.34-0.351-0.73-0.66-1.14-0.94c-0.4-0.27-0.841-0.5-1.29-0.69c-0.45-0.18-0.931-0.329-1.4-0.42c-0.97-0.199-1.97-0.199-2.939,0
			c-0.471,0.091-0.95,0.24-1.4,0.42c-0.45,0.19-0.89,0.421-1.29,0.69c-0.41,0.28-0.8,0.59-1.14,0.94
			c-0.351,0.34-0.66,0.729-0.94,1.14c-0.27,0.4-0.5,0.84-0.691,1.29c-0.18,0.45-0.329,0.93-0.42,1.4
			c-0.1,0.489-0.149,0.979-0.149,1.47c0,1.979,0.8,3.91,2.2,5.3c0.34,0.35,0.729,0.66,1.14,0.93c0.4,0.28,0.84,0.511,1.29,0.7
			c0.45,0.18,0.93,0.33,1.4,0.42c0.489,0.101,0.98,0.15,1.47,0.15c1.97,0,3.91-0.8,5.3-2.2c1.4-1.39,2.2-3.32,2.2-5.3
			C107.251,411.76,107.201,411.27,107.101,410.78z"/>
	</g>
</g>
<g>
	<g>
		<path d="M137.068,440.75c-0.098-0.48-0.238-0.95-0.428-1.4c-0.189-0.45-0.42-0.89-0.689-1.3c-0.27-0.41-0.58-0.79-0.931-1.14
			c-0.35-0.341-0.73-0.66-1.14-0.931c-0.41-0.27-0.84-0.5-1.29-0.689c-0.46-0.19-0.93-0.33-1.41-0.431
			c-2.439-0.489-5.03,0.31-6.77,2.051c-0.341,0.35-0.66,0.729-0.931,1.14c-0.27,0.41-0.5,0.85-0.689,1.3
			c-0.19,0.45-0.33,0.92-0.431,1.4c-0.09,0.49-0.14,0.979-0.14,1.47c0,1.97,0.8,3.91,2.19,5.3c1.399,1.4,3.33,2.2,5.309,2.2
			c0.49,0,0.98-0.05,1.46-0.15c0.48-0.09,0.95-0.239,1.41-0.43c0.45-0.18,0.88-0.41,1.29-0.689c0.41-0.271,0.79-0.58,1.14-0.931
			c1.4-1.39,2.2-3.33,2.2-5.3C137.218,441.73,137.168,441.241,137.068,440.75z"/>
	</g>
</g>
<g>
	<g>
		<path d="M116.42,371.5c-0.101-0.48-0.24-0.95-0.43-1.4s-0.421-0.89-0.69-1.29c-0.27-0.42-0.59-0.8-0.93-1.149
			c-0.351-0.341-0.73-0.65-1.141-0.931c-0.41-0.27-0.84-0.5-1.3-0.689c-0.45-0.181-0.92-0.33-1.399-0.431
			c-0.971-0.19-1.971-0.19-2.931,0c-0.479,0.101-0.95,0.25-1.41,0.431c-0.449,0.189-0.88,0.42-1.29,0.689
			c-0.409,0.28-0.79,0.59-1.14,0.931c-0.35,0.35-0.66,0.729-0.93,1.149c-0.271,0.4-0.5,0.84-0.69,1.29
			c-0.189,0.45-0.33,0.92-0.43,1.4c-0.101,0.49-0.15,0.979-0.15,1.47c0,0.49,0.05,0.98,0.15,1.47c0.1,0.471,0.24,0.94,0.43,1.4
			c0.19,0.45,0.42,0.89,0.69,1.29c0.27,0.41,0.58,0.8,0.93,1.14c0.35,0.351,0.73,0.66,1.14,0.931c0.41,0.27,0.841,0.51,1.29,0.689
			c0.46,0.191,0.931,0.33,1.41,0.43c0.48,0.101,0.98,0.15,1.46,0.15c0.49,0,0.99-0.05,1.471-0.15c0.48-0.1,0.949-0.239,1.399-0.43
			c0.46-0.18,0.89-0.42,1.3-0.689c0.41-0.271,0.79-0.58,1.141-0.931c0.34-0.34,0.66-0.729,0.93-1.14c0.27-0.4,0.5-0.84,0.69-1.29
			c0.19-0.46,0.329-0.93,0.43-1.4c0.1-0.489,0.149-0.98,0.149-1.47S116.519,371.991,116.42,371.5z"/>
	</g>
</g>
<g>
	<g>
		<path d="M144.331,397.628c-0.341-0.338-0.722-0.658-1.142-0.928c-0.4-0.271-0.84-0.5-1.29-0.69c-0.449-0.19-0.92-0.33-1.399-0.43
			c-0.97-0.191-1.97-0.191-2.94,0c-0.47,0.1-0.95,0.239-1.399,0.43c-0.45,0.19-0.891,0.42-1.29,0.69
			c-0.41,0.27-0.801,0.59-1.141,0.93c-0.35,0.35-0.66,0.729-0.94,1.14c-0.27,0.41-0.5,0.84-0.681,1.3
			c-0.189,0.45-0.34,0.921-0.43,1.4c-0.1,0.48-0.149,0.98-0.149,1.47c0,0.48,0.05,0.98,0.149,1.46c0.09,0.48,0.24,0.95,0.43,1.4
			c0.181,0.46,0.41,0.89,0.681,1.3c0.279,0.41,0.59,0.79,0.94,1.141c1.391,1.399,3.33,2.199,5.301,2.199
			c0.489,0,0.979-0.05,1.47-0.15c0.48-0.1,0.95-0.24,1.399-0.431c0.45-0.19,0.891-0.42,1.29-0.69c0.42-0.27,0.801-0.59,1.141-0.93
			c0.35-0.351,0.66-0.73,0.939-1.141c0.27-0.41,0.5-0.84,0.691-1.3c0.18-0.45,0.33-0.92,0.42-1.4c0.1-0.48,0.15-0.98,0.15-1.46
			C146.531,400.958,145.73,399.029,144.331,397.628z"/>
	</g>
</g>
<g>
	<g>
		<path d="M123.68,328.379c-1.74-1.74-4.33-2.54-6.77-2.05c-0.48,0.1-0.95,0.239-1.4,0.43c-0.45,0.19-0.89,0.42-1.3,0.69
			c-0.41,0.27-0.79,0.59-1.141,0.93c-1.39,1.4-2.189,3.33-2.189,5.31c0,0.49,0.05,0.98,0.14,1.46c0.101,0.48,0.25,0.95,0.431,1.41
			c0.189,0.45,0.42,0.88,0.689,1.29c0.271,0.41,0.59,0.79,0.93,1.141c0.351,0.35,0.73,0.659,1.141,0.93c0.41,0.27,0.85,0.5,1.3,0.69
			c0.45,0.19,0.92,0.33,1.4,0.431c0.489,0.1,0.979,0.15,1.47,0.15c0.49,0,0.979-0.05,1.46-0.15c0.479-0.1,0.95-0.24,1.41-0.431
			c0.45-0.19,0.89-0.42,1.29-0.69c0.409-0.271,0.799-0.58,1.139-0.93c0.351-0.351,0.66-0.73,0.93-1.141
			c0.271-0.41,0.5-0.84,0.69-1.29c0.19-0.46,0.33-0.93,0.43-1.41c0.101-0.48,0.15-0.97,0.15-1.46
			C125.88,331.709,125.08,329.78,123.68,328.379z"/>
	</g>
</g>
<g>
	<g>
		<path d="M155.7,362.189c-0.1-0.479-0.24-0.949-0.43-1.409c-0.189-0.45-0.42-0.881-0.689-1.29c-0.27-0.41-0.59-0.79-0.931-1.141
			c-1.75-1.74-4.34-2.54-6.77-2.05c-0.48,0.1-0.95,0.24-1.4,0.43c-0.46,0.19-0.89,0.42-1.3,0.69c-0.41,0.27-0.79,0.58-1.14,0.93
			c-0.35,0.351-0.66,0.73-0.931,1.141c-0.27,0.409-0.5,0.84-0.689,1.29c-0.19,0.46-0.33,0.93-0.43,1.409
			c-0.091,0.48-0.141,0.98-0.141,1.46c0,1.98,0.8,3.91,2.19,5.311c0.35,0.34,0.73,0.66,1.14,0.93c0.41,0.271,0.84,0.5,1.3,0.691
			c0.45,0.189,0.92,0.33,1.4,0.43c0.48,0.1,0.98,0.14,1.47,0.14c0.48,0,0.98-0.04,1.46-0.14c0.48-0.1,0.95-0.24,1.4-0.43
			c0.46-0.191,0.89-0.42,1.3-0.691c0.41-0.27,0.79-0.59,1.14-0.93c1.4-1.4,2.2-3.33,2.2-5.311
			C155.849,363.169,155.799,362.669,155.7,362.189z"/>
	</g>
</g>
<g>
	<g>
		<path d="M185.67,392.16c-0.101-0.48-0.24-0.96-0.43-1.41s-0.421-0.891-0.69-1.29c-0.27-0.41-0.59-0.8-0.93-1.141
			c-0.351-0.35-0.73-0.659-1.141-0.93c-0.41-0.27-0.85-0.51-1.3-0.689c-0.45-0.19-0.92-0.341-1.399-0.431
			c-0.971-0.2-1.971-0.2-2.931,0c-0.479,0.09-0.95,0.24-1.41,0.431c-0.449,0.18-0.88,0.42-1.29,0.689
			c-0.409,0.271-0.79,0.58-1.14,0.93c-0.34,0.341-0.66,0.73-0.93,1.141c-0.27,0.399-0.5,0.84-0.69,1.29
			c-0.189,0.45-0.33,0.93-0.43,1.41c-0.101,0.479-0.15,0.97-0.15,1.46c0,0.489,0.05,0.98,0.15,1.47c0.1,0.479,0.24,0.95,0.43,1.4
			c0.19,0.449,0.42,0.89,0.69,1.3c0.27,0.41,0.59,0.79,0.93,1.14c0.35,0.34,0.73,0.66,1.14,0.93c0.41,0.271,0.841,0.5,1.29,0.69
			c0.46,0.19,0.931,0.33,1.41,0.43c0.48,0.09,0.97,0.141,1.46,0.141s0.98-0.051,1.471-0.141c0.479-0.1,0.949-0.239,1.399-0.43
			s0.89-0.42,1.3-0.69c0.41-0.27,0.79-0.59,1.141-0.93c0.34-0.35,0.66-0.729,0.93-1.14c0.27-0.41,0.5-0.85,0.69-1.3
			c0.189-0.45,0.329-0.921,0.43-1.4c0.09-0.49,0.14-0.98,0.14-1.47S185.76,392.64,185.67,392.16z"/>
	</g>
</g>
<g>
</g>
<g>
</g>
<g>
</g>
<g>
</g>
<g>
</g>
<g>
</g>
<g>
</g>
<g>
</g>
<g>
</g>
<g>
</g>
<g>
</g>
<g>
</g>
<g>
</g>
<g>
</g>
<g>
</g>
</svg>
