<svg width="93px" height="100px" viewBox="0 0 93 100" version="1.1" xmlns="http://www.w3.org/2000/svg" xmlns:xlink="http://www.w3.org/1999/xlink">
    <g id="Page-1" stroke="none" stroke-width="1" fill="none" fill-rule="evenodd">
        <g id="Artboard" transform="translate(-420.000000, -240.000000)">
            <g id="goals" transform="translate(420.000000, 240.000000)">
                <rect id="Rectangle" stroke="#555555" stroke-width="5" fill="#FFFFFF" x="2.5" y="11.5" width="75" height="86" rx="8"></rect>
                <path d="M28,2 C24.6862915,2 22,4.6862915 22,8 L22,17 C22,18.1045695 22.8954305,19 24,19 L56,19 C57.1045695,19 58,18.1045695 58,17 L58,8 C58,4.6862915 55.3137085,2 52,2 L28,2 Z" id="Rectangle" stroke="#555555" stroke-width="4" fill="#FF9290"></path>
                <g id="Group-13" transform="translate(47.000000, 41.000000)" stroke="#555555" stroke-width="4">
                    <circle id="Oval" fill="#FF9290" cx="23" cy="23" r="21"></circle>
                    <polyline id="Path-6" stroke-linecap="round" stroke-linejoin="round" points="11 24.6753967 20.4183976 31 34 16"></polyline>
                </g>
                <g id="Group-10" transform="translate(15.000000, 31.000000)" fill="#555555" fill-rule="nonzero">
                    <path d="M2,4 L30.377778,4 C31.4823475,4 32.377778,3.1045695 32.377778,2 C32.377778,0.8954305 31.4823475,0 30.377778,0 L2,0 C0.8954305,0 2.84217094e-14,0.8954305 2.84217094e-14,2 C2.84217094e-14,3.1045695 0.8954305,4 2,4 Z" id="Line-7-Copy-4"></path>
                    <path d="M1.54426904,20 L23.455731,20 C24.3086072,20 25,19.1045695 25,18 C25,16.8954305 24.3086072,16 23.455731,16 L1.54426904,16 C0.691392798,16 0,16.8954305 0,18 C0,19.1045695 0.691392798,20 1.54426904,20 Z" id="Line-7-Copy-5"></path>
                    <path d="M1.54426904,35 L23.455731,35 C24.3086072,35 25,34.1045695 25,33 C25,31.8954305 24.3086072,31 23.455731,31 L1.54426904,31 C0.691392798,31 0,31.8954305 0,33 C0,34.1045695 0.691392798,35 1.54426904,35 Z" id="Line-7-Copy-6"></path>
                </g>
            </g>
        </g>
    </g>
</svg>