<svg width="96px" height="103px" viewBox="0 0 96 103" version="1.1" xmlns="http://www.w3.org/2000/svg" xmlns:xlink="http://www.w3.org/1999/xlink">
    <g id="Page-1" stroke="none" stroke-width="1" fill="none" fill-rule="evenodd">
        <g id="Artboard" transform="translate(-420.000000, -415.000000)">
            <g id="goals-copy" transform="translate(420.000000, 415.000000)">
                <path d="M20.749,9 L20.749,14.164 L8.29993782,14.1648352 C6.58096441,14.1648352 5.18746113,15.5522604 5.18746113,17.2637363 L5.18746113,94.7362637 C5.18746113,96.4477396 6.58096441,97.8351648 8.29993782,97.8351648 L74.6994403,97.8351648 C76.4184137,97.8351648 77.811917,96.4477396 77.811917,94.7362637 L77.8117872,89.0084806 C79.6274577,88.607751 81.3653288,88.0010843 82.9994097,87.2143579 L82.9993782,94.7362637 C82.9993782,99.3001993 79.2833694,103 74.6994403,103 L8.29993782,103 C3.71600874,103 0,99.3001993 0,94.7362637 L0,17.2637363 C0,12.6998007 3.71600874,9 8.29993782,9 L20.749,9 Z M74.6994403,9 C79.2833694,9 82.9993782,12.6998007 82.9993782,17.2637363 L82.9994097,44.4120157 C81.3653288,43.6252894 79.6274577,43.0186227 77.8117872,42.6178931 L77.811917,17.2637363 C77.811917,15.5522604 76.4184137,14.1648352 74.6994403,14.1648352 L62.249,14.164 L62.249,9 L74.6994403,9 Z" id="Combined-Shape" fill="#ffffff" fill-rule="nonzero"></path>
                <path d="M29,2 C25.6862915,2 23,4.6862915 23,8 L23,18 C23,19.1045695 23.8954305,20 25,20 L58,20 C59.1045695,20 60,19.1045695 60,18 L60,8 C60,4.6862915 57.3137085,2 54,2 L29,2 Z" id="Rectangle" stroke="#ffffff" stroke-width="4"></path>
                <g id="Group-13" transform="translate(49.000000, 42.000000)" stroke="#ffffff" stroke-width="4">
                    <circle id="Oval" cx="23.5" cy="23.5" r="21.5"></circle>
                    <polyline id="Path-6" stroke-linecap="round" stroke-linejoin="round" points="11.2391304 25.2118183 20.8622758 31.673913 34.7391304 16.3478261"></polyline>
                </g>
                <g id="Group-10" transform="translate(16.000000, 32.000000)" fill="#ffffff" fill-rule="nonzero">
                    <path d="M2.06060606,4.11428571 L31.2983167,4.11428571 C32.436358,4.11428571 33.3589228,3.19327149 33.3589228,2.05714286 C33.3589228,0.921014229 32.436358,0 31.2983167,0 L2.06060606,0 C0.922564758,0 2.84217094e-14,0.921014229 2.84217094e-14,2.05714286 C2.84217094e-14,3.19327149 0.922564758,4.11428571 2.06060606,4.11428571 Z" id="Line-7-Copy-4"></path>
                    <path d="M1.59106507,20.5714286 L24.1665107,20.5714286 C25.0452317,20.5714286 25.7575758,19.6504143 25.7575758,18.5142857 C25.7575758,17.3781571 25.0452317,16.4571429 24.1665107,16.4571429 L1.59106507,16.4571429 C0.712344094,16.4571429 0,17.3781571 0,18.5142857 C0,19.6504143 0.712344094,20.5714286 1.59106507,20.5714286 Z" id="Line-7-Copy-5"></path>
                    <path d="M1.59106507,36 L24.1665107,36 C25.0452317,36 25.7575758,35.0789858 25.7575758,33.9428571 C25.7575758,32.8067285 25.0452317,31.8857143 24.1665107,31.8857143 L1.59106507,31.8857143 C0.712344094,31.8857143 0,32.8067285 0,33.9428571 C0,35.0789858 0.712344094,36 1.59106507,36 Z" id="Line-7-Copy-6"></path>
                </g>
            </g>
        </g>
    </g>
</svg>