<svg width="93px" height="100px" viewBox="0 0 93 100" version="1.1" xmlns="http://www.w3.org/2000/svg" xmlns:xlink="http://www.w3.org/1999/xlink">
    <g id="Page-1" stroke="none" stroke-width="1" fill="none" fill-rule="evenodd">
        <g id="Artboard" transform="translate(-389.000000, -477.000000)">
            <g id="goals-copy" transform="translate(389.000000, 477.000000)">
                <path d="M20,9 L20,13 L8,13 C5.790861,13 4,14.790861 4,17 L4,92 C4,94.209139 5.790861,96 8,96 L72,96 C74.209139,96 76,94.209139 76,92 L76.0004783,82.0330282 C77.4151973,81.562511 78.7560188,80.9301693 80.0009916,80.1579542 L80,92 C80,96.418278 76.418278,100 72,100 L8,100 C3.581722,100 0,96.418278 0,92 L0,17 C0,12.581722 3.581722,9 8,9 L20,9 Z M72,9 C76.418278,9 80,12.581722 80,17 L80.0009916,47.8420458 C78.7560188,47.0698307 77.4151973,46.437489 76.0004783,45.9669718 L76,17 C76,14.790861 74.209139,13 72,13 L60,13 L60,9 L72,9 Z" id="Combined-Shape" fill="#313131" fill-rule="nonzero"></path>
                <path d="M28,2 C24.6862915,2 22,4.6862915 22,8 L22,17 C22,18.1045695 22.8954305,19 24,19 L56,19 C57.1045695,19 58,18.1045695 58,17 L58,8 C58,4.6862915 55.3137085,2 52,2 L28,2 Z" id="Rectangle" stroke="#313131" stroke-width="4"></path>
                <g id="Group-13" transform="translate(47.000000, 41.000000)" stroke="#313131" stroke-width="4">
                    <circle id="Oval" cx="23" cy="23" r="21"></circle>
                    <polyline id="Path-6" stroke-linecap="round" stroke-linejoin="round" points="11 24.6753967 20.4183976 31 34 16"></polyline>
                </g>
                <g id="Group-10" transform="translate(15.000000, 31.000000)" fill="#313131" fill-rule="nonzero">
                    <path d="M2,4 L30.377778,4 C31.4823475,4 32.377778,3.1045695 32.377778,2 C32.377778,0.8954305 31.4823475,0 30.377778,0 L2,0 C0.8954305,0 2.84217094e-14,0.8954305 2.84217094e-14,2 C2.84217094e-14,3.1045695 0.8954305,4 2,4 Z" id="Line-7-Copy-4"></path>
                    <path d="M1.54426904,20 L23.455731,20 C24.3086072,20 25,19.1045695 25,18 C25,16.8954305 24.3086072,16 23.455731,16 L1.54426904,16 C0.691392798,16 0,16.8954305 0,18 C0,19.1045695 0.691392798,20 1.54426904,20 Z" id="Line-7-Copy-5"></path>
                    <path d="M1.54426904,35 L23.455731,35 C24.3086072,35 25,34.1045695 25,33 C25,31.8954305 24.3086072,31 23.455731,31 L1.54426904,31 C0.691392798,31 0,31.8954305 0,33 C0,34.1045695 0.691392798,35 1.54426904,35 Z" id="Line-7-Copy-6"></path>
                </g>
            </g>
        </g>
    </g>
</svg>