<svg width="100px" height="101px" viewBox="0 0 100 101" version="1.1" xmlns="http://www.w3.org/2000/svg" xmlns:xlink="http://www.w3.org/1999/xlink">
    <g id="Page-1" stroke="none" stroke-width="1" fill="none" fill-rule="evenodd">
        <g id="Artboard" transform="translate(-101.000000, -240.000000)">
            <g id="clock" transform="translate(100.000000, 240.000000)">
                <g id="Group-11" transform="translate(0.000000, 62.000000)" fill="#FF9290" stroke="#555555" stroke-width="4">
                    <path d="M74.9415608,2.96915099 C74.9297126,2.96911356 74.9297126,2.96911356 74.9178644,2.96915099 C73.5371681,2.97569458 72.4231971,4.10027475 72.4297407,5.48097112 L72.5591542,32.7872216 C72.5774653,36.650852 75.7050248,39.7784116 79.5686552,39.7967226 C79.601229,39.7968255 79.601229,39.7968255 79.6338028,39.7967226 C83.4296915,39.7787326 86.4922835,36.6869731 86.4742935,32.8910844 L86.3444757,5.4995249 C86.3379759,4.12807343 85.2278034,3.01790096 83.8563519,3.01140119 L74.9415608,2.96915099 Z" id="Rectangle" transform="translate(79.462479, 21.393398) scale(-1, 1) rotate(-315.000000) translate(-79.462479, -21.393398) "></path>
                    <path d="M17.309271,2.96915099 C17.2974227,2.96911356 17.2974227,2.96911356 17.2855745,2.96915099 C15.9048782,2.97569458 14.7909072,4.10027475 14.7974508,5.48097112 L14.9268643,32.7872216 C14.9451754,36.650852 18.0727349,39.7784116 21.9363654,39.7967226 C21.9689391,39.7968255 21.9689391,39.7968255 22.0015129,39.7967226 C25.7974016,39.7787326 28.8599936,36.6869731 28.8420036,32.8910844 L28.7121858,5.4995249 C28.705686,4.12807343 27.5955135,3.01790096 26.2240621,3.01140119 L17.309271,2.96915099 Z" id="Rectangle-Copy-4" transform="translate(21.830189, 21.393398) rotate(-315.000000) translate(-21.830189, -21.393398) "></path>
                </g>
                <line x1="51.6078015" y1="11" x2="51.3921985" y2="39.1760834" id="Path-4" stroke="#555555" stroke-width="4" stroke-linecap="round" stroke-linejoin="round" transform="translate(51.500000, 25.088042) scale(-1, 1) translate(-51.500000, -25.088042) "></line>
                <g id="Group-8" transform="translate(10.000000, 18.000000)" fill="#FFFFFF" stroke="#555555" stroke-width="4">
                    <circle id="Oval" cx="41" cy="41" r="39"></circle>
                </g>
                <line x1="51.6078015" y1="31" x2="51.3921985" y2="59.1760834" id="Path-4" stroke="#555555" stroke-width="4" stroke-linecap="round" stroke-linejoin="round" transform="translate(51.500000, 45.088042) scale(-1, 1) translate(-51.500000, -45.088042) "></line>
                <g id="Group-12" transform="translate(63.000000, 0.000000)" stroke="#555555" stroke-width="4">
                    <path d="M3.65585064,10.6234386 L31.7817101,31.7830401 C37.7757738,22.4657628 36.8211006,11.0508613 29.5271749,5.56350686 C22.2324036,0.0755161825 10.9764419,2.30493096 3.65585064,10.6234386 Z" id="Path-Copy-2" fill="#FF9290"></path>
                    <line x1="12.1937638" y1="21.0692612" x2="16.4579779" y2="26.216023" id="Path-4" stroke-linecap="round" stroke-linejoin="round" transform="translate(14.325871, 23.642642) scale(-1, 1) translate(-14.325871, -23.642642) "></line>
                </g>
                <line x1="70.6635137" y1="74.2025437" x2="52.2573054" y2="58.8800874" id="Path-4" stroke="#555555" stroke-width="4" stroke-linecap="round" stroke-linejoin="round"></line>
                <g id="Group-12-Copy" transform="translate(20.000000, 17.500000) scale(-1, 1) translate(-20.000000, -17.500000) translate(1.000000, 0.000000)" stroke="#555555" stroke-width="4">
                    <path d="M3.65585064,10.6234386 L31.7817101,31.7830401 C37.7757738,22.4657628 36.8211006,11.0508613 29.5271749,5.56350686 C22.2324036,0.0755161825 10.9764419,2.30493096 3.65585064,10.6234386 Z" id="Path-Copy-2" fill="#FF9290"></path>
                    <line x1="12.1937638" y1="21.0692612" x2="16.4579779" y2="26.216023" id="Path-4" stroke-linecap="round" stroke-linejoin="round" transform="translate(14.325871, 23.642642) scale(-1, 1) translate(-14.325871, -23.642642) "></line>
                </g>
                <circle id="Oval" fill="#555555" cx="51.5" cy="59.5" r="7.5"></circle>
                <line x1="46" y1="9.5" x2="57" y2="9.5" id="Line-5" stroke="#555555" stroke-width="4" stroke-linecap="round"></line>
            </g>
        </g>
    </g>
</svg>