<svg id="Layer_1" enable-background="new 0 0 464 464" height="512" viewBox="0 0 464 464" width="512" xmlns="http://www.w3.org/2000/svg"><path d="m232 0c128.13 0 232 103.87 232 232s-103.87 232-232 232-232-103.87-232-232 103.87-232 232-232z" fill="#fe4f60"/><path d="m464 232c0 128.13-103.87 232-232 232-69.16 0-131.25-30.26-173.74-78.26 40.94 36.25 94.77 58.26 153.74 58.26 128.13 0 232-103.87 232-232 0-58.97-22.01-112.8-58.26-153.74 48 42.49 78.26 104.58 78.26 173.74z" fill="#e84857"/><path d="m425.11 103.39c-36.81-24.57-81.04-38.89-128.61-38.89-186.232 0-294.9 208.112-193.11 360.61-62.33-41.59-103.39-112.55-103.39-193.11 0-128.13 103.87-232 232-232 80.56 0 151.52 41.06 193.11 103.39z" fill="#ff6d7a"/><circle cx="232" cy="232" fill="#f1fafc" r="169"/><path d="m220.687 243.313-78.5-78.5c-6.249-6.248-6.249-16.379 0-22.627 6.248-6.249 16.379-6.249 22.627 0l51.186 51.187v-31.373c0-8.836 7.163-16 16-16s16 7.164 16 16v70c0 14.225-17.262 21.369-27.313 11.313z" fill="#4d4e59"/><g fill="#c9edf2"><path d="m110 232c0 8.84-7.16 16-16 16h-30.25c-.973-10.254-1.028-21.166 0-32h30.25c8.84 0 16 7.16 16 16z"/><path d="m248 370v30.25c-10.254.973-21.166 1.028-32 0v-30.25c0-8.84 7.16-16 16-16s16 7.16 16 16z"/><path d="m400.25 248h-30.25c-8.84 0-16-7.16-16-16s7.16-16 16-16h30.25c.973 10.254 1.028 21.166 0 32z"/><path d="m248 63.75v30.25c0 8.84-7.16 16-16 16s-16-7.16-16-16v-30.25c10.254-.973 21.166-1.028 32 0z"/><path d="m266.2 66.46c-103.9 13.55-186.19 95.84-199.74 199.74-24.37-118.52 80.303-224.298 199.74-199.74z"/></g></svg>