<svg width="100px" height="103px" viewBox="0 0 100 103" version="1.1" xmlns="http://www.w3.org/2000/svg" xmlns:xlink="http://www.w3.org/1999/xlink">
    <g id="Page-1" stroke="none" stroke-width="1" fill="none" fill-rule="evenodd">
        <g id="Artboard" transform="translate(-101.000000, -413.000000)">
            <g id="clock-copy-2" transform="translate(101.000000, 413.000000)">
                <line x1="49.6078015" y1="11" x2="50" y2="18" id="Path-4" stroke="#FFFFFF" stroke-width="4" stroke-linecap="round" stroke-linejoin="round" transform="translate(50.000000, 14.500000) scale(-1, 1) translate(-50.000000, -14.500000) "></line>
                <g id="Group-8" transform="translate(9.000000, 18.000000)" stroke="#FFFFFF" stroke-width="4">
                    <circle id="Oval" cx="41" cy="41" r="39"></circle>
                </g>
                <line x1="50.6078015" y1="31" x2="50.3921985" y2="59.1760834" id="Path-4" stroke="#FFFFFF" stroke-width="4" stroke-linecap="round" stroke-linejoin="round" transform="translate(50.500000, 45.088042) scale(-1, 1) translate(-50.500000, -45.088042) "></line>
                <g id="Group-12" transform="translate(62.000000, 0.000000)" stroke="#FFFFFF" stroke-width="4">
                    <path d="M3.65585064,10.6234386 L31.7817101,31.7830401 C37.7757738,22.4657628 36.8211006,11.0508613 29.5271749,5.56350686 C22.2324036,0.0755161825 10.9764419,2.30493096 3.65585064,10.6234386 Z" id="Path-Copy-2"></path>
                    <line x1="12.1937638" y1="21.0692612" x2="16.4579779" y2="26.216023" id="Path-4" stroke-linecap="round" stroke-linejoin="round" transform="translate(14.325871, 23.642642) scale(-1, 1) translate(-14.325871, -23.642642) "></line>
                </g>
                <line x1="69.6635137" y1="74.2025437" x2="51.2573054" y2="58.8800874" id="Path-4" stroke="#FFFFFF" stroke-width="4" stroke-linecap="round" stroke-linejoin="round"></line>
                <g id="Group-12-Copy" transform="translate(19.000000, 17.500000) scale(-1, 1) translate(-19.000000, -17.500000) " stroke="#FFFFFF" stroke-width="4">
                    <path d="M3.65585064,10.6234386 L31.7817101,31.7830401 C37.7757738,22.4657628 36.8211006,11.0508613 29.5271749,5.56350686 C22.2324036,0.0755161825 10.9764419,2.30493096 3.65585064,10.6234386 Z" id="Path-Copy-2"></path>
                    <line x1="12.1937638" y1="21.0692612" x2="16.4579779" y2="26.216023" id="Path-4" stroke-linecap="round" stroke-linejoin="round" transform="translate(14.325871, 23.642642) scale(-1, 1) translate(-14.325871, -23.642642) "></line>
                </g>
                <circle id="Oval" fill="#FFFFFF" cx="50.5" cy="59.5" r="7.5"></circle>
                <g id="Group-11" transform="translate(0.000000, 77.000000)" stroke="#FFFFFF" stroke-width="4">
                    <path d="M94.8876811,4.15336835 L94.8876811,4.15336835 L94.9385918,14.7899901 C94.9613165,19.6904359 91.0075477,23.6818596 86.1071019,23.7051841 C86.0790672,23.7051841 86.051032,23.7051841 86.0229973,23.7051841 C81.0622057,23.6815736 77.0465081,19.665876 77.0229973,14.7050845 L76.9737008,4.30351928 L76.9737008,4.30351928" id="Path" transform="translate(85.956146, 13.929276) scale(-1, 1) rotate(-315.000000) translate(-85.956146, -13.929276) "></path>
                    <path d="M22.4658219,5.03811167 L22.4658219,5.03811167 L22.5129138,14.8689568 C22.5356385,19.7694025 18.5818697,23.7608262 13.6814239,23.7841508 C13.6533892,23.7841508 13.625354,23.7841508 13.5973193,23.7841508 C8.63652766,23.7605402 4.62083012,19.7448427 4.59731926,14.7840511 L4.54471777,3.6851381 L4.54471777,3.6851381" id="Path" transform="translate(13.528816, 13.734644) rotate(-315.000000) translate(-13.528816, -13.734644) "></path>
                </g>
                <line x1="45" y1="9.5" x2="56" y2="9.5" id="Line-5" stroke="#FFFFFF" stroke-width="4" stroke-linecap="round"></line>
            </g>
        </g>
    </g>
</svg>