<svg width="80px" height="122px" viewBox="0 0 80 122" version="1.1" xmlns="http://www.w3.org/2000/svg" xmlns:xlink="http://www.w3.org/1999/xlink">
    <g id="Page-1" stroke="none" stroke-width="1" fill="none" fill-rule="evenodd">
        <g id="Artboard" transform="translate(-671.000000, -30.000000)" stroke="#313131" stroke-width="4">
            <g id="luggage-logo-1-copy" transform="translate(671.000000, 32.000000)">
                <g id="Group-4" transform="translate(0.500000, 0.000000)">
                    <rect id="Rectangle" x="2" y="17.7400251" width="75" height="100" rx="10"></rect>
                    <g id="Group-2" transform="translate(27.500000, 5.740025)" stroke-linecap="square">
                        <line x1="0.5" y1="10.6333333" x2="0.5" y2="0.366666667" id="Line-3"></line>
                        <line x1="23.5" y1="10.6333333" x2="23.5" y2="0.366666667" id="Line-3-Copy"></line>
                    </g>
                    <path d="M3.764,39.5 C10.9014262,43.6043062 22.4898585,45.6564593 38.5292969,45.6564593 C54.5687353,45.6564593 66.7256363,43.6043062 75,39.5" id="Line-4" stroke-linecap="square"></path>
                    <path d="M39.4524525,56.7746858 C49.0979633,51.8493255 53.75,47.0763958 53.75,42.7400251 C53.75,38.5978894 50.3921356,35.2400251 46.25,35.2400251 C44.219318,35.2400251 42.3218323,36.0481512 40.921092,37.4625364 L39.5000739,38.8973968 L38.0790221,37.4625698 C36.6781824,36.0481509 34.7806807,35.2400251 32.75,35.2400251 C28.6078644,35.2400251 25.25,38.5978894 25.25,42.7400251 C25.25,47.6297714 29.8485873,52.3677029 39.4524525,56.7746858 Z" id="Path" fill="#FF9897"></path>
                    <g id="Group-3" transform="translate(50.412097, 85.575834) rotate(52.000000) translate(-50.412097, -85.575834) translate(33.912097, 56.075834)">
                        <g id="Group-5" transform="translate(16.164981, 29.211799) rotate(-11.000000) translate(-16.164981, -29.211799) translate(5.164981, 1.711799)">
                            <rect id="Rectangle" x="-0.675904242" y="26.2238404" width="22.1168478" height="30.2734375" rx="4"></rect>
                            <path d="M2,18.0297525 L2,26.0141275 L19.203125,26.0141275 L19.203125,18.0297525 L2,18.0297525 Z" id="Rectangle"></path>
                            <path d="M10.760447,-1.42108547e-14 C12.3513195,-1.42108547e-14 13.7915842,0.644828484 14.8341308,1.68737509 C15.8766774,2.7299217 16.5215059,4.17018643 16.5215059,5.76105892 C16.5215059,7.31150419 15.9090338,8.71889893 14.9128358,9.75449678 C17.6175295,11.2276067 19.4529681,14.0958105 19.4529681,17.3927041 L2.06792587,17.3927041 C2.06792587,14.0958105 3.90336452,11.2276067 6.60816265,9.75417167 C5.61186022,8.71889893 4.99938807,7.31150419 4.99938807,5.76105892 C4.99938807,2.57931394 7.57870201,-1.42108547e-14 10.760447,-1.42108547e-14 Z" id="Combined-Shape" stroke-linejoin="round"></path>
                        </g>
                    </g>
                    <line x1="21.5" y1="0.5" x2="57.5" y2="0.5" id="Line-4-Copy" stroke-linecap="round"></line>
                </g>
            </g>
        </g>
    </g>
</svg>