<svg width="93px" height="103px" viewBox="0 0 93 103" version="1.1" xmlns="http://www.w3.org/2000/svg" xmlns:xlink="http://www.w3.org/1999/xlink">
    <g id="Page-1" stroke="none" stroke-width="1" fill="none" fill-rule="evenodd">
        <g id="Artboard" transform="translate(-273.000000, -415.000000)">
            <g id="notes-copy" transform="translate(273.000000, 415.000000)">
                <path d="M4,29 L30,29 C32.209139,29 34,27.209139 34,25 L34,4 L34,4" id="Path-5" stroke="#ffffff" stroke-width="4" stroke-linejoin="round"></path>
                <path d="M73.7996209,0 C78.3283326,0 81.9995788,3.68917366 81.9995788,8.24 L81.9996172,12.1703736 C80.3898453,11.3324314 78.6417561,10.8543424 76.8742338,10.7358169 L76.8746051,8.24 C76.8746051,6.53344012 75.4978878,5.15 73.7996209,5.15 L32.9007114,5.15 C32.1697771,5.15 31.4627455,5.41164256 30.9063874,5.88801517 L6.20563387,27.0376359 C5.51997162,27.6247231 5.12497368,28.4844098 5.12497368,29.3896207 L5.12497368,94.76 C5.12497368,96.4665599 6.501691,97.85 8.19995788,97.85 L73.7996209,97.85 C75.4978878,97.85 76.8746051,96.4665599 76.8746051,94.76 L76.874,48.095 L77.3455769,47.6228221 L81.999,42.945 L81.9995788,94.76 C81.9995788,99.3108263 78.3283326,103 73.7996209,103 L8.19995788,103 C3.67124619,103 0,99.3108263 0,94.76 L0,29.3896207 C0,26.9757249 1.05332784,24.6832271 2.88176052,23.1176612 L27.582514,1.96804045 C29.0661356,0.697713501 30.9515532,0 32.9007114,0 L73.7996209,0 Z" id="Combined-Shape" fill="#ffffff" fill-rule="nonzero"></path>
                <g id="Group-9-Copy" transform="translate(50.702561, 52.372526) rotate(-315.000000) translate(-50.702561, -52.372526) translate(34.702561, 0.872526)" stroke="#ffffff" stroke-width="4">
                    <path d="M2.86711314,34.065862 L29.7949482,34.065862 L29.7949482,13.015862 C29.7949482,6.94072974 24.8700804,2.01586198 18.7949482,2.01586198 L13.8671131,2.01586198 C7.79198089,2.01586198 2.86711314,6.94072974 2.86711314,13.015862 L2.86711314,34.065862 Z" id="Rectangle"></path>
                    <path d="M3.03005152,21.1913761 L3.03005152,81.1033389 L14.8873676,97.0963089 C15.0046449,97.2544908 15.1446399,97.3944858 15.3028218,97.5117632 C16.1901233,98.1696156 17.4427181,97.9836104 18.1005705,97.0963089 L29.9578866,81.1033389 L29.9578866,21.1913761 L3.03005152,21.1913761 Z" id="Rectangle"></path>
                    <line x1="3.65547553" y1="79.2664861" x2="28.3977436" y2="79.2664861" id="Line-6" stroke-linecap="square"></line>
                    <line x1="2.98619569" y1="33.5319513" x2="27.7284637" y2="33.5319513" id="Line-6-Copy" stroke-linecap="square"></line>
                </g>
            </g>
        </g>
    </g>
</svg>