<svg width="90px" height="100px" viewBox="0 0 90 100" version="1.1" xmlns="http://www.w3.org/2000/svg" xmlns:xlink="http://www.w3.org/1999/xlink">
    <g id="Page-1" stroke="none" stroke-width="1" fill="none" fill-rule="evenodd">
        <g id="Artboard" transform="translate(-273.000000, -240.000000)" stroke="#555555">
            <g id="notes" transform="translate(273.000000, 240.000000)">
                <path d="M32.0984199,2.5 C30.791051,2.5 29.5264351,2.96570683 28.531318,3.81361923 L4.43289808,24.3472316 C3.20650401,25.3922088 2.5,26.9223955 2.5,28.5336124 L2.5,92 C2.5,95.0375661 4.96243388,97.5 8,97.5 L72,97.5 C75.0375661,97.5 77.5,95.0375661 77.5,92 L77.5,8 C77.5,4.96243388 75.0375661,2.5 72,2.5 L32.0984199,2.5 Z" id="Rectangle" stroke-width="5" fill="#FFFFFF"></path>
                <g id="Group-9" transform="translate(49.500000, 49.730059) rotate(-315.000000) translate(-49.500000, -49.730059) translate(34.000000, -0.769941)" stroke-width="4">
                    <path d="M2.84109975,29.9862738 L28.8410997,29.9862738 L28.8410997,13.9862738 C28.8410997,7.91114152 23.916232,2.98627377 17.8410997,2.98627377 L13.8410997,2.98627377 C7.7659675,2.98627377 2.84109975,7.91114152 2.84109975,13.9862738 L2.84109975,29.9862738 Z" id="Rectangle" fill="#FF9290"></path>
                    <path d="M2.99914997,21.6032777 L2.99914997,79.6932182 L14.3920356,95.0736138 C14.5095885,95.2323102 14.6499985,95.3727202 14.8086949,95.4902731 C15.6962796,96.1477433 16.9487942,95.9611986 17.6062644,95.0736138 L28.99915,79.6932182 L28.99915,21.6032777 L2.99914997,21.6032777 Z" id="Rectangle" fill="#FF9290"></path>
                    <line x1="3.54581126" y1="77.9286273" x2="27.5458113" y2="77.9286273" id="Line-6" stroke-linecap="square"></line>
                    <line x1="2.89660982" y1="33.5261663" x2="26.8966098" y2="33.5261663" id="Line-6-Copy" stroke-linecap="square"></line>
                </g>
                <path d="M4,27 L29,27 C31.209139,27 33,25.209139 33,23 L33,3 L33,3" id="Path-5" stroke-width="4" stroke-linejoin="round"></path>
            </g>
        </g>
    </g>
</svg>