<svg id="Capa_1" enable-background="new 0 0 512 512" height="512" viewBox="0 0 512 512" width="512" xmlns="http://www.w3.org/2000/svg"><g><path d="m215.556 245.736c0-22.15-18.021-40.171-40.171-40.171s-40.171 18.021-40.171 40.171 18.021 40.171 40.171 40.171 40.171-18.02 40.171-40.171zm-65.342 0c0-13.879 11.292-25.171 25.171-25.171s25.171 11.292 25.171 25.171-11.292 25.171-25.171 25.171-25.171-11.292-25.171-25.171z"/><path d="m186.203 108.382c4.143 0 7.5-3.357 7.5-7.5s-3.357-7.5-7.5-7.5h-21.638c-4.143 0-7.5 3.357-7.5 7.5s3.357 7.5 7.5 7.5z"/><path d="m504.5 497h-57.288c1.683-1.776 3.213-3.729 4.551-5.853 5.342-8.474 7.063-18.52 4.85-28.289-3.912-17.263-17.487-23.836-18.081-24.383l-34.009-21.442 35.518-22.393c8.473-5.342 14.358-13.664 16.572-23.434 2.214-9.769.491-19.815-4.851-28.288-7.348-11.655-16.039-13.446-47.233-34.108l35.511-22.386c17.491-11.027 22.75-34.229 11.724-51.722-6.691-10.612-18.254-17.505-32.665-17.505h-61.342c-4.143 0-7.5 3.357-7.5 7.5s3.357 7.5 7.5 7.5h27.662l-49.914 31.467h-45.004v-31.467h37.27c4.143 0 7.5-3.357 7.5-7.5s-3.357-7.5-7.5-7.5h-37.996c-2.654-10.667-12.31-18.596-23.786-18.596h-5.295v-30.675-28.046h28.12c3.168 0 5.994-1.99 7.062-4.973 1.067-2.983.146-6.314-2.303-8.324l-110.688-90.855v-28.228c0-4.143-3.357-7.5-7.5-7.5s-7.5 3.357-7.5 7.5v28.228l-45.679 37.494c-3.201 2.628-3.666 7.354-1.038 10.556 2.627 3.202 7.354 3.667 10.556 1.038l43.661-35.838 92.471 75.902h-184.942l25.519-20.947c3.201-2.628 3.666-7.354 1.038-10.556s-7.354-3.667-10.556-1.038l-41.718 34.244c-2.448 2.01-3.37 5.342-2.303 8.324s3.894 4.973 7.062 4.973h28.119v28.048c0 .007.001.013.001.019v100.691c0 4.143 3.357 7.5 7.5 7.5s7.5-3.357 7.5-7.5v-93.21h140.617v140.617c-17.131 0-126.089 0-140.617 0v-17.421c0-4.143-3.357-7.5-7.5-7.5s-7.5 3.357-7.5 7.5v24.902c0 .007-.001.013-.001.019v173.455h-82.575c-4.143 0-7.5 3.357-7.5 7.5s3.357 7.5 7.5 7.5h497c4.143 0 7.5-3.357 7.5-7.5s-3.357-7.5-7.5-7.5zm-310.177-72.945h-37.877v-21.566h37.877zm0-36.567h-37.877v-21.566h37.877zm-37.877 51.567h37.877v21.566h-37.877zm37.877-108.009v19.876h-37.877v-19.876zm-37.877 144.575h37.877v21.379h-37.877zm52.877-144.575h36.37v165.954h-36.37zm51.37-7.5v-26.285h5.295c11.477 0 21.132-7.929 23.786-18.596h22.149c-15.637 11.545-19.965 33.444-9.437 50.146 7.168 11.37 14.257 12.364 47.237 34.11l-35.514 22.391c-8.473 5.342-14.358 13.664-16.572 23.434-2.214 9.769-.491 19.815 4.851 28.288 7.616 12.079 12.666 11.181 88.242 59.967h-130.037zm137.027 133.531c4.274-6.778 11.594-10.494 19.071-10.494 4.097 0 8.243 1.118 11.958 3.458l3.292 2.075c.001 0 .002.001.002.001 10.492 6.617 13.647 20.536 7.032 31.03-4.147 6.578-11.273 10.505-19.063 10.505-4.229 0-8.367-1.2-11.968-3.469-.001-.001-.002-.002-.003-.002l-3.302-2.082c-10.482-6.62-13.632-20.532-7.019-31.022zm5.675-23.022c-7.338 2.789-13.864 7.886-18.363 15.022-4.386 6.958-6.326 14.976-5.656 23.03l-31.798-20.048c6.229-2.382 7.218-3.943 42.883-26.158zm38.589-66.162c-1.328 5.86-4.859 10.854-9.943 14.059-88.514 54.472-86.476 57.586-97.803 57.586-7.783 0-14.94-3.968-19.062-10.504-3.205-5.084-4.238-11.112-2.91-16.974s4.859-10.854 9.943-14.059l85.83-54.114c3.718-2.344 7.865-3.461 11.966-3.461 7.476 0 14.796 3.716 19.067 10.493 3.207 5.084 4.241 11.112 2.912 16.974zm-35.322-40.005c-2.27.867-4.488 1.965-6.621 3.309l-36.253 22.857-16.208-10.218c6.226-2.381 7.314-4.003 42.885-26.159zm32.412-85.185c6.616 10.495 3.461 24.416-7.034 31.032l-85.831 54.109c-3.601 2.271-7.74 3.471-11.971 3.471-4.185 0-8.174-1.143-11.617-3.213l-.409-.258c-.061-.038-.124-.068-.186-.104-2.713-1.749-5.06-4.091-6.849-6.93-6.616-10.495-3.461-24.416 7.034-31.032l85.83-54.109c3.718-2.343 7.863-3.46 11.963-3.46 7.476 0 14.798 3.717 19.07 10.494zm-173.086-29.1c5.245 0 9.513 4.268 9.513 9.513v49.633c0 5.245-4.268 9.513-9.513 9.513h-5.295v-68.658h5.295zm-160.913-53.175v-20.548h140.618v20.548zm0 170.618h36.371v165.954h-36.371z"/></g></svg>