<svg height="512" viewBox="0 0 58 60" width="512" xmlns="http://www.w3.org/2000/svg"><g id="Page-1" fill="none" fill-rule="evenodd"><g id="024---Auction" fill="rgb(0,0,0)" fill-rule="nonzero"><path id="Shape" d="m57.731 8.318c-.007-.008-.731-.873-.731-3.318-.1105566-1.14449057.1368226-2.29508328.708-3.293.2860368-.28612294.3714873-.71640792.2164868-1.09011669-.1550004-.37370876-.5199089-.61720162-.9244868-.61688331h-36c-1.3264893-.00132848-2.5990309.5250291-3.5370009 1.46299912-.93797.93797003-1.4643276 2.21051161-1.4629991 3.53700088v9h-8c0-1.1045695-.8954305-2-2-2h-2c-2.209139 0-4 1.790861-4 4v14c0 2.209139 1.790861 4 4 4h2c1.1045695 0 2-.8954305 2-2h5v10.184c-1.1943509.4222546-1.9947486 1.5492146-2 2.816v9c0 3.3137085 2.6862915 5.9999999 6 5.9999999s6-2.6862914 6-5.9999999v-5h33c1.1045695 0 2-.8954305 2-2v-38h-.026c.0036557-.24915939-.0826162-.49128872-.243-.682zm-38.859-5.436c.5648207-.56378947 1.3299525-.88091649 2.128-.882h34.394c-.2799547.97480823-.4127529 1.98596151-.394 3-.0187529 1.01403849.1140453 2.02519177.394 3.0000019l-3.394-.0000019v-3c0-.55228475-.4477153-1-1-1h-10c-.5522847 0-1 .44771525-1 1v3h-19c-1.2131452.00136131-2.3077058-.72805119-2.7734611-1.84822759-.4657552-1.1201764-.2110207-2.41060885.6454611-3.26977241zm31.128 3.118v21.586l-3.293-3.293c-.3904999-.3903819-1.0235001-.3903819-1.414 0l-3.293 3.293v-21.586zm-46 26c-1.1045695 0-2-.8954305-2-2v-14c0-1.1045695.8954305-2 2-2h2v1 17zm4-16h18v14h-18zm20 15v-17h2c1.1045695 0 2 .8954305 2 2v14c0 1.1045695-.8954305 2-2 2h-2zm-9 1v10h-4v-10zm2 22c0 2.209139-1.790861 4-4 4s-4-1.790861-4-4v-9c0-.5522847.4477153-1 1-1h6c.5522847 0 1 .4477153 1 1zm2-7v-2c-.0052514-1.2667854-.8056491-2.3937454-2-2.816v-10.184h5c0 1.1045695.8954305 2 2 2h2c2.209139 0 4-1.790861 4-4v-14c0-2.209139-1.790861-4-4-4h-2c-1.1045695 0-2 .8954305-2 2h-8v-5.026c.8603889.66180667 1.9145307 1.02232318 3 1.026h19v20c.0000863.4043959.2437275.7689341.6173454.923678.373618.1547439.8036603.0692299 1.0896546-.216678l4.293-4.293 4.293 4.293c.2859943.2859079.7160366.3714219 1.0896546.216678.3736179-.1547439.6172591-.5192821.6173454-.923678v-20h4v37z"/><path id="Shape" d="m22 6h1c.5522847 0 1-.44771525 1-1s-.4477153-1-1-1h-1c-.5522847 0-1 .44771525-1 1s.4477153 1 1 1z"/><path id="Shape" d="m27 6h10c.5522847 0 1-.44771525 1-1s-.4477153-1-1-1h-10c-.5522847 0-1 .44771525-1 1s.4477153 1 1 1z"/><path id="Shape" d="m12 18h-1c-.5522847 0-1 .4477153-1 1s.4477153 1 1 1h1c.5522847 0 1-.4477153 1-1s-.4477153-1-1-1z"/><path id="Shape" d="m16 20h7c.5522847 0 1-.4477153 1-1s-.4477153-1-1-1h-7c-.5522847 0-1 .4477153-1 1s.4477153 1 1 1z"/><path id="Shape" d="m44 35h-10c-1.1045695 0-2 .8954305-2 2v2c0 1.1045695.8954305 2 2 2h10c1.1045695 0 2-.8954305 2-2v-2c0-1.1045695-.8954305-2-2-2zm-10 4v-2h10v2z"/><path id="Shape" d="m43 43h-8c-.5522847 0-1 .4477153-1 1s.4477153 1 1 1h8c.5522847 0 1-.4477153 1-1s-.4477153-1-1-1z"/></g></g></svg>